<svg xmlns="http://www.w3.org/2000/svg" xmlns:xlink="http://www.w3.org/1999/xlink" width="1200" height="1200" viewBox="0 0 1200 1200"><rect width="100%" height="100%" fill="#ffffff"></rect><g transform="translate(600 600) scale(0.69 0.69) rotate(0) translate(-600 -600)" style="fill:#41bf50"><svg fill="#41bf50" xmlns:dc="http://purl.org/dc/elements/1.1/" xmlns:cc="http://creativecommons.org/ns#" xmlns:rdf="http://www.w3.org/1999/02/22-rdf-syntax-ns#" xmlns:svg="http://www.w3.org/2000/svg" xmlns="http://www.w3.org/2000/svg" xmlns:sodipodi="http://sodipodi.sourceforge.net/DTD/sodipodi-0.dtd" xmlns:inkscape="http://www.inkscape.org/namespaces/inkscape" viewBox="0 0 8.4666667 8.4666669" version="1.1" x="0px" y="0px"><svg:g><svg:path style="color:#000000;font-style:normal;font-variant:normal;font-weight:normal;font-stretch:normal;font-size:medium;line-height:normal;font-family:sans-serif;font-variant-ligatures:normal;font-variant-position:normal;font-variant-caps:normal;font-variant-numeric:normal;font-variant-alternates:normal;font-feature-settings:normal;text-indent:0;text-align:start;text-decoration:none;text-decoration-line:none;text-decoration-style:solid;text-decoration-color:#000000;letter-spacing:normal;word-spacing:normal;text-transform:none;writing-mode:lr-tb;direction:ltr;text-orientation:mixed;dominant-baseline:auto;baseline-shift:baseline;text-anchor:start;white-space:normal;shape-padding:0;clip-rule:nonzero;display:inline;overflow:visible;visibility:visible;opacity:1;isolation:auto;mix-blend-mode:normal;color-interpolation:sRGB;color-interpolation-filters:linearRGB;solid-color:#000000;solid-opacity:1;vector-effect:none;fill:#41bf50;fill-opacity:1;fill-rule:nonzero;stroke:none;stroke-width:0.52924609;stroke-linecap:round;stroke-linejoin:round;stroke-miterlimit:4;stroke-dasharray:none;stroke-dashoffset:0;stroke-opacity:1;color-rendering:auto;image-rendering:auto;shape-rendering:auto;text-rendering:auto;enable-background:accumulate" d="M 4.6721653,1.0586255 C 3.6068643,1.058378 2.7186283,1.8393145 2.5498233,2.8579854 2.4122443,2.8153547 2.2683223,2.7932198 2.1226953,2.793141 a 0.26464951,0.26464951 0 0 0 -7.1e-5,0 C 1.3272023,2.7929215 0.67655933,3.4432872 0.67643033,4.2387083 a 0.26464951,0.26464951 0 0 0 0,0.00127 c 3.23e-4,0.070843 0.0059,0.141464 0.01658,0.2113145 -0.417613,0.29341 -0.69364999667,0.7773763 -0.69364999667,1.3276538 0,0.8979889 0.73109399667,1.6290946 1.62908196667,1.6290946 h 5.20977 c 0.897989,0 1.629094,-0.7311057 1.629094,-1.6290946 0,-0.4710496 -0.201397,-0.8958855 -0.521412,-1.1930034 0.05839,-0.1556422 0.08949,-0.3207975 0.08984,-0.4882406 a 0.26464951,0.26464951 0 0 0 0,-5.556e-4 C 8.0357853,3.3692947 7.4725573,2.767039 6.7604263,2.7038632 6.5300473,1.7511544 5.6719903,1.0597212 4.6724253,1.0586255 l 0.0089,3.284e-4 a 0.26464951,0.26464951 0 0 0 -0.00919,-3.284e-4 z m -3.19e-4,0.5292423 c 3e-5,0 6.2e-5,-10e-8 9.5e-5,0 h 9.5e-5 c 0.81664,9.895e-4 1.501823,0.6039908 1.606562,1.4139067 a 0.26464951,0.26464951 0 0 0 0.287862,0.229465 c 0.0238,-0.0023 0.04769,-0.00354 0.0716,-0.00387 0.482809,7.197e-4 0.868343,0.3865676 0.868426,0.8695373 -3.7e-4,0.1516774 -0.04039,0.3005842 -0.116096,0.4320167 a 0.26464951,0.26464951 0 0 0 0.07766,0.3489629 c 0.284413,0.1988569 0.470007,0.5244669 0.470007,0.9010555 0,0.614018 -0.485822,1.0998407 -1.09984,1.0998407 h -5.209771 c -0.614017,0 -1.09982797,-0.4858227 -1.09982797,-1.0998407 0,-0.4248465 0.237763,-0.7827182 0.58739097,-0.9677662 a 0.26464951,0.26464951 0 0 0 0.129369,-0.3109368 c -0.02585,-0.084952 -0.03921,-0.1732156 -0.03968,-0.2620113 3.89e-4,-0.5090819 0.407566,-0.9159316 0.916715,-0.9158293 0.184028,10e-5 0.363685,0.055558 0.515744,0.1592121 a 0.26464951,0.26464951 0 0 0 0.4133,-0.2328189 c -7.41e-4,-0.013953 -0.0013,-0.027909 -0.0017,-0.041875 0.0016,-0.8976431 0.724056,-1.6191537 1.622045,-1.6190449 z"></svg:path></svg:g></svg></g></svg>