<svg id="outputsvg" xmlns="http://www.w3.org/2000/svg" style="transform: none; transform-origin: 50% 50%; cursor: move; display: inline;" width="520" height="260" viewBox="0 0 6000 3000" preserveAspectRatio="xMidYMid meet" title="informacao-documentada-registro-ou-documento-2.svg (76KB)"><g id="layer101" fill="#373435" stroke="none">  <path d="M0 1500 l0 -1500 3000 0 3000 0 0 1500 0 1500 -3000 0 -3000 0 0 -1500z"></path>  </g> <g id="layer102" fill="#473231" stroke="none">  <path d="M0 1500 l0 -1500 3000 0 3000 0 0 1500 0 1500 -3000 0 -3000 0 0 -1500z m3637 933 c-4 -3 -10 -3 -14 0 -3 4 0 7 7 7 7 0 10 -3 7 -7z m28 -13 c3 -5 4 -10 1 -10 -3 0 -8 5 -11 10 -3 6 -4 10 -1 10 3 0 8 -4 11 -10z m100 -60 c3 -6 -1 -7 -9 -4 -18 7 -21 14 -7 14 6 0 13 -4 16 -10z m30 -20 c3 -5 4 -10 1 -10 -3 0 -8 5 -11 10 -3 6 -4 10 -1 10 3 0 8 -4 11 -10z m-398 -47 c-4 -3 -10 -3 -14 0 -3 4 0 7 7 7 7 0 10 -3 7 -7z m460 0 c-4 -3 -10 -3 -14 0 -3 4 0 7 7 7 7 0 10 -3 7 -7z m-412 -23 c3 -5 4 -10 1 -10 -3 0 -8 5 -11 10 -3 6 -4 10 -1 10 3 0 8 -4 11 -10z m480 -10 c3 -5 4 -10 1 -10 -3 0 -8 5 -11 10 -3 6 -4 10 -1 10 3 0 8 -4 11 -10z m-631 -39 c4 -5 -3 -7 -14 -4 -23 6 -26 13 -6 13 8 0 17 -4 20 -9z m690 0 c4 -5 -3 -7 -14 -4 -23 6 -26 13 -6 13 8 0 17 -4 20 -9z m-419 -21 c3 -5 4 -10 1 -10 -3 0 -8 5 -11 10 -3 6 -4 10 -1 10 3 0 8 -4 11 -10z m-220 -10 c3 -5 4 -10 1 -10 -3 0 -8 5 -11 10 -3 6 -4 10 -1 10 3 0 8 -4 11 -10z m690 0 c3 -5 4 -10 1 -10 -3 0 -8 5 -11 10 -3 6 -4 10 -1 10 3 0 8 -4 11 -10z m-1320 -9 c3 -6 -5 -20 -17 -33 -22 -22 -23 -28 -17 -143 l5 -120 2 106 2 105 39 22 c21 12 46 22 55 22 22 0 20 -23 -5 -46 -20 -18 -21 -25 -14 -144 3 -69 9 -140 12 -158 l5 -32 -43 20 c-53 24 -71 25 -109 5 -27 -14 -30 -14 -30 0 0 9 -10 20 -22 26 -21 9 -21 9 4 4 l27 -5 -6 167 -5 168 38 22 c42 24 69 29 79 14z m725 -47 c0 -2 -9 0 -20 6 -11 6 -20 13 -20 16 0 2 9 0 20 -6 11 -6 20 -13 20 -16z m205 16 c3 -5 4 -10 1 -10 -3 0 -8 5 -11 10 -3 6 -4 10 -1 10 3 0 8 -4 11 -10z m449 -12 c-5 -8 -2 -9 9 -5 9 3 19 1 23 -5 5 -7 2 -8 -6 -3 -9 6 -11 4 -6 -4 5 -7 14 -10 21 -7 8 3 12 -2 11 -11 -3 -17 -42 -42 -68 -43 -9 0 -44 -16 -78 -36 l-61 -35 -31 18 c-17 10 -31 23 -31 28 -1 15 153 103 187 108 17 2 32 5 34 5 2 1 0 -3 -4 -10z m-189 -8 c3 -5 4 -10 1 -10 -3 0 -8 5 -11 10 -3 6 -4 10 -1 10 3 0 8 -4 11 -10z m-620 -40 c3 -6 -1 -7 -9 -4 -18 7 -21 14 -7 14 6 0 13 -4 16 -10z m481 -16 c19 -15 19 -15 -1 -6 -11 5 -27 12 -35 15 -13 5 -13 6 1 6 8 1 24 -6 35 -15z m-431 -14 c3 -5 4 -10 1 -10 -3 0 -8 5 -11 10 -3 6 -4 10 -1 10 3 0 8 -4 11 -10z m230 0 c3 -5 4 -10 1 -10 -3 0 -8 5 -11 10 -3 6 -4 10 -1 10 3 0 8 -4 11 -10z m629 -88 c11 -68 7 -882 -5 -882 -6 0 -20 5 -32 12 -12 7 -42 15 -67 19 l-45 6 48 2 47 1 0 455 0 455 24 -15 c15 -10 26 -29 30 -53z m-1037 51 c-4 -3 -10 -3 -14 0 -3 4 0 7 7 7 7 0 10 -3 7 -7z m230 0 c-4 -3 -10 -3 -14 0 -3 4 0 7 7 7 7 0 10 -3 7 -7z m238 -3 c3 -6 -1 -7 -9 -4 -18 7 -21 14 -7 14 6 0 13 -4 16 -10z m-185 -26 c0 -2 -9 0 -20 6 -11 6 -20 13 -20 16 0 2 9 0 20 -6 11 -6 20 -13 20 -16z m440 11 c17 -9 30 -20 30 -24 0 -5 -20 -21 -45 -35 -44 -24 -46 -24 -75 -8 -38 22 -38 35 3 61 39 25 49 26 87 6z m-675 -5 c3 -5 4 -10 1 -10 -3 0 -8 5 -11 10 -3 6 -4 10 -1 10 3 0 8 -4 11 -10z m470 -10 c3 -5 4 -10 1 -10 -3 0 -8 5 -11 10 -3 6 -4 10 -1 10 3 0 8 -4 11 -10z m-595 -56 c0 -2 -9 0 -20 6 -11 6 -20 13 -20 16 0 2 9 0 20 -6 11 -6 20 -13 20 -16z m204 17 c4 -5 -3 -7 -14 -4 -23 6 -26 13 -6 13 8 0 17 -4 20 -9z m213 2 c-4 -3 -10 -3 -14 0 -3 4 0 7 7 7 7 0 10 -3 7 -7z m264 -15 c22 -12 39 -24 39 -27 0 -3 -25 -17 -55 -30 -52 -22 -56 -22 -80 -7 -14 9 -25 21 -25 26 0 8 65 57 79 59 2 1 21 -9 42 -21z m-216 -8 c3 -5 4 -10 1 -10 -3 0 -8 5 -11 10 -3 6 -4 10 -1 10 3 0 8 -4 11 -10z m-210 -10 c3 -5 4 -10 1 -10 -3 0 -8 5 -11 10 -3 6 -4 10 -1 10 3 0 8 -4 11 -10z m-178 -37 c-4 -3 -10 -3 -14 0 -3 4 0 7 7 7 7 0 10 -3 7 -7z m249 -9 c19 -15 19 -15 -1 -6 -11 5 -27 12 -35 15 -13 5 -13 6 1 6 8 1 24 -6 35 -15z m239 -5 c40 -24 40 -24 -28 -60 -34 -18 -39 -18 -67 -4 -17 9 -30 20 -30 25 0 9 68 58 82 59 4 1 23 -9 43 -20z m-435 -15 c0 -2 -9 0 -20 6 -11 6 -20 13 -20 16 0 2 9 0 20 -6 11 -6 20 -13 20 -16z m-225 -2 c-3 -3 -11 0 -18 7 -9 10 -8 11 6 5 10 -3 15 -9 12 -12z m95 -58 c0 -2 -9 0 -20 6 -11 6 -20 13 -20 16 0 2 9 0 20 -6 11 -6 20 -13 20 -16z m187 19 c-4 -3 -10 -3 -14 0 -3 4 0 7 7 7 7 0 10 -3 7 -7z m256 -9 c18 -9 34 -18 36 -20 7 -6 -41 -63 -59 -69 -19 -6 -100 32 -100 47 0 8 70 56 83 57 4 1 22 -6 40 -15z m-678 -4 c3 -5 4 -10 1 -10 -3 0 -8 5 -11 10 -3 6 -4 10 -1 10 3 0 8 -4 11 -10z m480 -18 c-3 -3 -11 0 -18 7 -9 10 -8 11 6 5 10 -3 15 -9 12 -12z m-400 -32 c3 -6 -1 -7 -9 -4 -18 7 -21 14 -7 14 6 0 13 -4 16 -10z m491 -21 c19 -11 34 -24 34 -27 -1 -4 -23 -17 -50 -30 -46 -22 -51 -22 -79 -8 -45 24 -45 33 -4 60 47 31 57 31 99 5z m-896 -15 c0 -2 -9 0 -20 6 -11 6 -20 13 -20 16 0 2 9 0 20 -6 11 -6 20 -13 20 -16z m690 0 c0 -2 -9 0 -20 6 -11 6 -20 13 -20 16 0 2 9 0 20 -6 11 -6 20 -13 20 -16z m-225 -2 c-3 -3 -11 0 -18 7 -9 10 -8 11 6 5 10 -3 15 -9 12 -12z m-619 -38 c18 -14 18 -14 -6 -3 -31 14 -36 19 -24 19 6 0 19 -7 30 -16z m680 0 c18 -14 18 -14 -6 -3 -31 14 -36 19 -24 19 6 0 19 -7 30 -16z m284 -34 c0 -4 -23 -17 -50 -29 -44 -20 -55 -21 -80 -11 -40 17 -38 35 8 63 l37 24 43 -20 c23 -12 42 -24 42 -27z m-495 20 c3 -5 4 -10 1 -10 -3 0 -8 5 -11 10 -3 6 -4 10 -1 10 3 0 8 -4 11 -10z m339 -64 l38 -23 -48 -27 c-47 -26 -50 -27 -81 -12 -38 18 -36 32 10 63 40 27 35 27 81 -1z m-117 -67 c33 -21 34 -22 14 -36 -12 -8 -21 -21 -21 -29 0 -9 -11 -14 -30 -14 -34 0 -90 25 -90 40 0 16 41 38 61 33 13 -4 19 0 19 11 0 21 6 20 47 -5z m-124 -73 l38 -24 -48 -27 c-41 -23 -52 -25 -78 -16 -27 9 -28 9 -11 -4 11 -8 18 -16 15 -19 -2 -2 -23 -15 -46 -29 l-41 -26 -7 39 c-8 48 0 63 31 57 16 -3 24 0 24 9 0 12 64 62 80 63 3 0 22 -10 43 -23z m1087 -351 c0 -2 -10 -9 -22 -15 -22 -11 -22 -10 -4 4 21 17 26 19 26 11z m-50 -30 c0 -2 -13 -11 -30 -20 -38 -19 -40 -11 -2 9 31 17 32 18 32 11z m-98 -57 c-21 -21 -13 -48 21 -68 17 -11 28 -20 23 -20 -19 0 -76 43 -76 57 0 9 8 22 18 29 21 17 30 18 14 2z"></path>  </g> <g id="layer103" fill="#565656" stroke="none">  <path d="M0 1500 l0 -1500 3000 0 3000 0 0 1500 0 1500 -3000 0 -3000 0 0 -1500z m3637 933 c-4 -3 -10 -3 -14 0 -3 4 0 7 7 7 7 0 10 -3 7 -7z m28 -13 c3 -5 4 -10 1 -10 -3 0 -8 5 -11 10 -3 6 -4 10 -1 10 3 0 8 -4 11 -10z m100 -60 c3 -6 -1 -7 -9 -4 -18 7 -21 14 -7 14 6 0 13 -4 16 -10z m30 -20 c3 -5 4 -10 1 -10 -3 0 -8 5 -11 10 -3 6 -4 10 -1 10 3 0 8 -4 11 -10z m-398 -47 c-4 -3 -10 -3 -14 0 -3 4 0 7 7 7 7 0 10 -3 7 -7z m460 0 c-4 -3 -10 -3 -14 0 -3 4 0 7 7 7 7 0 10 -3 7 -7z m-412 -23 c3 -5 4 -10 1 -10 -3 0 -8 5 -11 10 -3 6 -4 10 -1 10 3 0 8 -4 11 -10z m480 -10 c3 -5 4 -10 1 -10 -3 0 -8 5 -11 10 -3 6 -4 10 -1 10 3 0 8 -4 11 -10z m-631 -39 c4 -5 -3 -7 -14 -4 -23 6 -26 13 -6 13 8 0 17 -4 20 -9z m690 0 c4 -5 -3 -7 -14 -4 -23 6 -26 13 -6 13 8 0 17 -4 20 -9z m-419 -21 c3 -5 4 -10 1 -10 -3 0 -8 5 -11 10 -3 6 -4 10 -1 10 3 0 8 -4 11 -10z m-220 -10 c3 -5 4 -10 1 -10 -3 0 -8 5 -11 10 -3 6 -4 10 -1 10 3 0 8 -4 11 -10z m690 0 c3 -5 4 -10 1 -10 -3 0 -8 5 -11 10 -3 6 -4 10 -1 10 3 0 8 -4 11 -10z m-1320 -9 c3 -6 -5 -20 -17 -33 -22 -22 -23 -28 -17 -143 l5 -120 2 106 2 105 39 22 c21 12 46 22 55 22 22 0 20 -23 -5 -46 -20 -18 -21 -25 -14 -144 3 -69 9 -140 12 -158 l5 -32 -43 20 c-53 24 -71 25 -109 5 -27 -14 -30 -14 -30 0 0 9 -10 20 -22 26 -21 9 -21 9 4 4 l27 -5 -6 167 -5 168 38 22 c42 24 69 29 79 14z m725 -47 c0 -2 -9 0 -20 6 -11 6 -20 13 -20 16 0 2 9 0 20 -6 11 -6 20 -13 20 -16z m205 16 c3 -5 4 -10 1 -10 -3 0 -8 5 -11 10 -3 6 -4 10 -1 10 3 0 8 -4 11 -10z m449 -12 c-5 -8 -2 -9 9 -5 9 3 19 1 23 -5 5 -7 2 -8 -6 -3 -9 6 -11 4 -6 -4 5 -7 14 -10 21 -7 8 3 12 -2 11 -11 -3 -17 -42 -42 -68 -43 -9 0 -44 -16 -78 -36 l-61 -35 -31 18 c-17 10 -31 23 -31 28 -1 15 153 103 187 108 17 2 32 5 34 5 2 1 0 -3 -4 -10z m-189 -8 c3 -5 4 -10 1 -10 -3 0 -8 5 -11 10 -3 6 -4 10 -1 10 3 0 8 -4 11 -10z m-620 -40 c3 -6 -1 -7 -9 -4 -18 7 -21 14 -7 14 6 0 13 -4 16 -10z m481 -16 c19 -15 19 -15 -1 -6 -11 5 -27 12 -35 15 -13 5 -13 6 1 6 8 1 24 -6 35 -15z m-431 -14 c3 -5 4 -10 1 -10 -3 0 -8 5 -11 10 -3 6 -4 10 -1 10 3 0 8 -4 11 -10z m230 0 c3 -5 4 -10 1 -10 -3 0 -8 5 -11 10 -3 6 -4 10 -1 10 3 0 8 -4 11 -10z m629 -88 c11 -68 7 -882 -5 -882 -6 0 -20 5 -32 12 -12 7 -42 15 -67 19 l-45 6 48 2 47 1 0 455 0 455 24 -15 c15 -10 26 -29 30 -53z m-1037 51 c-4 -3 -10 -3 -14 0 -3 4 0 7 7 7 7 0 10 -3 7 -7z m230 0 c-4 -3 -10 -3 -14 0 -3 4 0 7 7 7 7 0 10 -3 7 -7z m238 -3 c3 -6 -1 -7 -9 -4 -18 7 -21 14 -7 14 6 0 13 -4 16 -10z m-185 -26 c0 -2 -9 0 -20 6 -11 6 -20 13 -20 16 0 2 9 0 20 -6 11 -6 20 -13 20 -16z m440 11 c17 -9 30 -20 30 -24 0 -5 -20 -21 -45 -35 -44 -24 -46 -24 -75 -8 -38 22 -38 35 3 61 39 25 49 26 87 6z m-675 -5 c3 -5 4 -10 1 -10 -3 0 -8 5 -11 10 -3 6 -4 10 -1 10 3 0 8 -4 11 -10z m470 -10 c3 -5 4 -10 1 -10 -3 0 -8 5 -11 10 -3 6 -4 10 -1 10 3 0 8 -4 11 -10z m-595 -56 c0 -2 -9 0 -20 6 -11 6 -20 13 -20 16 0 2 9 0 20 -6 11 -6 20 -13 20 -16z m204 17 c4 -5 -3 -7 -14 -4 -23 6 -26 13 -6 13 8 0 17 -4 20 -9z m213 2 c-4 -3 -10 -3 -14 0 -3 4 0 7 7 7 7 0 10 -3 7 -7z m264 -15 c22 -12 39 -25 39 -28 0 -4 -23 -17 -51 -30 -46 -22 -53 -23 -77 -10 -38 22 -37 36 5 64 21 14 40 25 42 25 2 1 21 -9 42 -21z m-216 -8 c3 -5 4 -10 1 -10 -3 0 -8 5 -11 10 -3 6 -4 10 -1 10 3 0 8 -4 11 -10z m-210 -10 c3 -5 4 -10 1 -10 -3 0 -8 5 -11 10 -3 6 -4 10 -1 10 3 0 8 -4 11 -10z m-178 -37 c-4 -3 -10 -3 -14 0 -3 4 0 7 7 7 7 0 10 -3 7 -7z m249 -9 c19 -15 19 -15 -1 -6 -11 5 -27 12 -35 15 -13 5 -13 6 1 6 8 1 24 -6 35 -15z m238 -5 c20 -12 36 -22 36 -24 0 -2 -21 -15 -46 -30 -45 -27 -48 -27 -80 -11 -19 8 -34 20 -34 26 0 9 67 58 82 59 4 1 23 -8 42 -20z m-434 -15 c0 -2 -9 0 -20 6 -11 6 -20 13 -20 16 0 2 9 0 20 -6 11 -6 20 -13 20 -16z m-225 -2 c-3 -3 -11 0 -18 7 -9 10 -8 11 6 5 10 -3 15 -9 12 -12z m95 -58 c0 -2 -9 0 -20 6 -11 6 -20 13 -20 16 0 2 9 0 20 -6 11 -6 20 -13 20 -16z m187 19 c-4 -3 -10 -3 -14 0 -3 4 0 7 7 7 7 0 10 -3 7 -7z m256 -9 c18 -9 34 -18 36 -20 7 -6 -41 -63 -59 -69 -19 -6 -100 32 -100 47 0 8 70 56 83 57 4 1 22 -6 40 -15z m-678 -4 c3 -5 4 -10 1 -10 -3 0 -8 5 -11 10 -3 6 -4 10 -1 10 3 0 8 -4 11 -10z m480 -18 c-3 -3 -11 0 -18 7 -9 10 -8 11 6 5 10 -3 15 -9 12 -12z m-400 -32 c3 -6 -1 -7 -9 -4 -18 7 -21 14 -7 14 6 0 13 -4 16 -10z m491 -21 c35 -21 45 -49 19 -49 -9 0 -30 -7 -47 -16 -24 -13 -35 -13 -59 -4 -52 22 -55 36 -12 64 47 31 57 31 99 5z m-896 -15 c0 -2 -9 0 -20 6 -11 6 -20 13 -20 16 0 2 9 0 20 -6 11 -6 20 -13 20 -16z m690 0 c0 -2 -9 0 -20 6 -11 6 -20 13 -20 16 0 2 9 0 20 -6 11 -6 20 -13 20 -16z m-225 -2 c-3 -3 -11 0 -18 7 -9 10 -8 11 6 5 10 -3 15 -9 12 -12z m-619 -38 c18 -14 18 -14 -6 -3 -31 14 -36 19 -24 19 6 0 19 -7 30 -16z m680 0 c18 -14 18 -14 -6 -3 -31 14 -36 19 -24 19 6 0 19 -7 30 -16z m284 -36 c0 -5 -12 -13 -27 -19 -16 -7 -38 -16 -50 -22 -26 -12 -83 8 -83 29 0 8 17 24 38 37 l37 24 43 -20 c23 -12 42 -25 42 -29z m-495 22 c3 -5 4 -10 1 -10 -3 0 -8 5 -11 10 -3 6 -4 10 -1 10 3 0 8 -4 11 -10z m686 -10 c18 -10 19 -25 19 -385 0 -206 -2 -375 -5 -375 -3 0 -30 18 -59 40 -44 33 -52 44 -50 67 2 16 8 78 13 138 43 457 50 525 57 525 3 0 14 -5 25 -10z m-347 -54 l38 -23 -48 -27 c-47 -26 -50 -27 -81 -12 -38 18 -36 32 10 63 40 27 35 27 81 -1z m-117 -67 c33 -21 34 -22 14 -36 -12 -8 -21 -21 -21 -29 0 -9 -11 -14 -30 -14 -34 0 -90 25 -90 40 0 16 41 38 61 33 13 -4 19 0 19 11 0 21 6 20 47 -5z m-124 -73 l38 -24 -48 -27 c-41 -23 -52 -25 -78 -16 -27 9 -28 9 -11 -4 11 -8 18 -16 15 -19 -7 -6 -88 -56 -92 -56 -1 0 -3 21 -2 48 0 45 1 47 28 47 15 -1 27 5 27 12 0 11 65 61 80 62 3 0 22 -10 43 -23z m1087 -351 c0 -2 -10 -9 -22 -15 -22 -11 -22 -10 -4 4 21 17 26 19 26 11z m-50 -30 c0 -2 -13 -11 -30 -20 -38 -19 -40 -11 -2 9 31 17 32 18 32 11z m-98 -57 c-21 -21 -13 -48 21 -68 17 -11 26 -20 19 -20 -22 0 -72 40 -72 57 0 9 8 22 18 29 21 17 30 18 14 2z m-487 -338 c3 -5 4 -10 1 -10 -3 0 -8 5 -11 10 -3 6 -4 10 -1 10 3 0 8 -4 11 -10z"></path>  </g> <g id="layer104" fill="#9e5f46" stroke="none">  <path d="M0 1500 l0 -1500 3000 0 3000 0 0 1500 0 1500 -3000 0 -3000 0 0 -1500z m3676 919 c19 -11 34 -26 34 -33 0 -7 -45 -38 -99 -70 l-100 -57 -41 23 c-22 13 -39 29 -38 36 3 14 174 120 197 121 7 1 29 -8 47 -20z m105 -65 c22 -14 39 -30 36 -37 -5 -15 -177 -117 -199 -117 -26 0 -88 40 -82 53 4 9 180 119 202 126 1 1 21 -10 43 -25z m110 -66 c22 -13 38 -29 37 -38 -3 -16 -174 -120 -198 -120 -24 0 -82 39 -77 53 3 9 175 120 195 126 2 1 21 -9 43 -21z m-453 -8 c17 -11 32 -25 32 -32 0 -7 -18 -23 -40 -36 l-41 -23 -39 22 c-22 13 -40 28 -40 35 0 14 57 52 80 53 8 1 30 -8 48 -19z m-122 -65 c24 -14 41 -31 38 -38 -2 -6 -21 -22 -41 -33 l-37 -22 -43 21 c-24 12 -43 26 -43 33 0 9 65 61 79 63 2 1 24 -10 47 -24z m229 4 c44 -26 42 -44 -7 -73 l-38 -21 -37 21 c-21 12 -39 28 -41 35 -2 12 60 57 80 59 4 0 23 -10 43 -21z m497 -28 c11 -9 -3 -25 -44 -50 l-37 -22 -40 23 c-23 13 -41 28 -41 34 0 7 19 23 43 37 l42 25 35 -20 c19 -12 38 -24 42 -27z m-1322 -16 c0 -6 -9 -20 -20 -30 -36 -33 -25 -48 20 -25 69 35 106 23 69 -24 -16 -20 -19 -37 -17 -86 l3 -60 184 106 c199 115 196 114 260 65 l23 -18 -230 -133 -231 -132 49 -25 c28 -14 50 -30 50 -36 0 -11 -69 -57 -84 -57 -4 0 -6 7 -6 16 0 9 -22 25 -53 39 -43 20 -59 23 -86 15 -42 -12 -61 -28 -61 -51 0 -12 -7 -19 -19 -19 -22 0 -91 38 -91 50 0 17 81 61 101 55 20 -7 21 -4 18 152 -1 88 1 165 5 172 12 18 86 50 103 44 7 -3 13 -11 13 -18z m711 -27 c22 -12 39 -25 39 -30 0 -4 -18 -20 -41 -35 l-40 -26 -45 21 c-24 12 -44 27 -44 34 0 12 65 57 84 58 4 0 26 -10 47 -22z m229 0 c22 -13 40 -28 40 -34 0 -6 -20 -22 -45 -35 l-44 -23 -38 21 c-21 12 -39 26 -41 32 -3 9 63 59 81 60 4 1 26 -9 47 -21z m230 -3 c22 -14 40 -29 40 -34 0 -12 -67 -51 -87 -51 -19 0 -83 38 -83 49 0 9 70 59 83 60 4 1 25 -10 47 -24z m231 -7 c22 -12 39 -28 39 -36 0 -22 -31 -41 -65 -42 -36 0 -246 -118 -260 -146 -5 -11 -17 -18 -27 -16 -34 7 -262 -125 -266 -153 -3 -22 -70 -65 -101 -65 -42 0 -378 -184 -387 -212 -3 -10 -15 -18 -26 -18 -23 0 -229 -112 -248 -135 -7 -8 -19 -15 -27 -15 -12 0 -13 3 -4 14 9 11 10 20 1 36 -6 11 -8 29 -5 40 8 25 210 142 238 138 13 -2 21 2 20 10 -2 7 7 12 21 12 14 0 26 7 28 18 6 22 985 588 1022 591 4 1 26 -9 47 -21z m-807 -59 c20 -12 36 -25 36 -30 0 -5 -18 -20 -41 -35 l-41 -26 -44 24 c-24 12 -44 28 -44 34 0 11 68 53 87 54 6 0 28 -9 47 -21z m230 0 c20 -12 36 -26 36 -33 0 -6 -19 -22 -43 -35 l-43 -24 -42 24 c-23 13 -42 29 -42 34 0 11 68 54 87 55 6 0 28 -9 47 -21z m227 -1 c22 -12 38 -28 37 -36 -2 -7 -20 -23 -41 -35 l-37 -21 -45 22 c-25 12 -45 26 -45 31 0 9 69 59 84 60 4 1 26 -9 47 -21z m-546 -98 c0 -8 -18 -25 -40 -37 l-41 -22 -42 25 c-23 14 -40 30 -36 35 3 5 22 20 42 33 l37 24 40 -22 c22 -12 40 -28 40 -36z m953 44 l22 -15 0 -458 c0 -252 -3 -460 -6 -464 -3 -3 -20 3 -37 14 -53 32 -91 25 -199 -37 -109 -61 -119 -79 -65 -113 17 -11 26 -21 19 -21 -8 0 -27 9 -44 21 -48 35 -35 54 82 122 85 50 113 61 148 61 l42 -1 0 454 c0 249 3 453 8 453 4 0 18 -7 30 -16z m-750 -14 c17 -11 32 -25 32 -32 0 -7 -18 -23 -40 -36 l-40 -22 -39 20 c-22 11 -42 24 -46 29 -6 12 62 61 85 61 8 0 30 -9 48 -20z m226 -1 c20 -12 36 -27 36 -35 0 -8 -19 -24 -43 -35 l-43 -21 -37 22 c-45 27 -47 42 -4 68 41 26 49 26 91 1z m-583 -61 c48 -27 47 -46 -3 -73 -35 -19 -37 -19 -77 0 -23 10 -41 25 -41 34 0 12 52 52 79 60 2 1 21 -9 42 -21z m229 0 c22 -13 40 -30 40 -39 0 -15 -58 -49 -85 -49 -20 0 -75 33 -75 46 0 9 64 61 78 63 2 1 21 -9 42 -21z m229 -2 c55 -29 57 -42 7 -71 l-45 -27 -41 23 c-22 12 -40 28 -40 35 0 13 57 52 78 53 7 1 25 -5 41 -13z m-567 -72 l42 -27 -28 -23 c-40 -35 -67 -39 -109 -14 -20 12 -37 27 -37 33 0 11 63 53 83 56 4 1 26 -11 49 -25z m222 3 c22 -12 41 -28 43 -34 3 -7 -16 -23 -42 -35 l-46 -23 -37 21 c-20 12 -38 26 -40 32 -3 9 62 60 78 61 3 0 23 -9 44 -22z m274 -35 c2 -6 -16 -22 -40 -36 l-42 -25 -41 22 c-22 12 -40 28 -40 35 0 7 18 23 40 37 l40 24 40 -23 c21 -13 41 -28 43 -34z m-387 -34 c22 -12 39 -27 39 -33 0 -7 -19 -22 -43 -35 l-43 -23 -42 22 c-23 12 -42 26 -42 31 0 10 68 58 84 59 4 1 26 -9 47 -21z m232 -3 c20 -10 37 -24 37 -31 0 -14 -64 -54 -85 -54 -18 0 -85 39 -85 50 0 9 82 61 90 57 3 -1 22 -11 43 -22z m-813 -65 c22 -11 40 -27 40 -35 0 -8 -19 -24 -42 -36 l-42 -22 -42 23 c-48 25 -48 35 -1 67 40 27 40 27 87 3z m464 -1 c20 -12 36 -27 36 -34 0 -7 -20 -23 -44 -36 l-44 -23 -41 27 c-23 15 -41 29 -41 32 0 8 74 54 87 54 6 1 28 -8 47 -20z m227 -1 c22 -12 38 -28 37 -36 -2 -7 -20 -23 -41 -35 l-38 -21 -44 23 c-24 13 -42 28 -39 35 4 10 70 55 83 56 2 0 21 -10 42 -22z m-591 -69 c0 -41 0 -41 -23 -26 -13 8 -32 17 -42 19 -16 3 -12 8 20 26 22 11 41 21 43 22 1 0 2 -19 2 -41z m-206 2 c31 -20 31 -20 -36 -35 -15 -3 -33 -12 -41 -20 -12 -13 -17 -13 -36 0 -29 21 -27 31 17 53 47 25 60 25 96 2z m486 -37 c0 -7 -17 -14 -40 -16 l-40 -4 0 39 0 38 40 -22 c22 -13 40 -28 40 -35z m196 35 c39 -23 43 -43 14 -59 -18 -10 -49 -8 -117 6 -34 7 -28 27 15 52 46 27 47 27 88 1z m474 -401 c0 -208 -2 -378 -5 -378 -3 0 -30 18 -59 40 -40 31 -52 46 -50 63 2 12 8 78 14 147 12 131 36 389 46 477 5 51 6 52 30 41 l24 -11 0 -379z m-1000 303 c0 -9 -82 -51 -100 -51 -8 0 -28 8 -43 19 -38 25 -19 39 58 43 62 3 85 0 85 -11z m44 -52 c33 -39 33 -45 -4 -64 -29 -15 -33 -15 -70 6 -22 13 -40 28 -40 35 0 13 56 52 77 53 6 1 23 -13 37 -30z m372 22 c-3 -4 -19 -14 -36 -21 -25 -10 -36 -10 -56 0 -39 21 -28 30 37 30 33 0 58 -4 55 -9z m-105 -21 c10 -6 19 -15 19 -20 0 -12 -110 -74 -117 -66 -4 3 -2 6 4 6 6 0 23 20 37 45 30 50 29 49 57 35z m-206 -59 c3 -5 0 -13 -6 -16 -6 -4 -14 -16 -17 -26 -7 -18 -9 -18 -27 -4 -20 15 -20 15 4 35 26 22 37 25 46 11z m746 -788 c13 -16 12 -17 -3 -4 -10 7 -18 15 -18 17 0 8 8 3 21 -13z"></path>    </g> <g id="layer105" fill="#d95022" stroke="none">  <path d="M0 1500 l0 -1500 3000 0 3000 0 0 1500 0 1500 -3000 0 -3000 0 0 -1500z m3676 919 c19 -11 34 -26 34 -33 0 -7 -45 -38 -99 -70 l-100 -57 -41 23 c-22 13 -39 29 -38 36 3 14 174 120 197 121 7 1 29 -8 47 -20z m105 -65 c22 -14 39 -30 36 -37 -5 -15 -177 -117 -199 -117 -26 0 -88 40 -82 53 4 9 180 119 202 126 1 1 21 -10 43 -25z m110 -66 c22 -13 38 -29 37 -38 -3 -16 -174 -120 -198 -120 -24 0 -82 39 -77 53 3 9 175 120 195 126 2 1 21 -9 43 -21z m-453 -8 c17 -11 32 -25 32 -32 0 -7 -18 -23 -40 -36 l-41 -23 -39 22 c-22 13 -40 28 -40 35 0 14 57 52 80 53 8 1 30 -8 48 -19z m-122 -65 c24 -14 41 -31 38 -38 -2 -6 -21 -22 -41 -33 l-37 -22 -43 21 c-24 12 -43 26 -43 33 0 9 65 61 79 63 2 1 24 -10 47 -24z m229 4 c44 -26 42 -44 -7 -73 l-38 -21 -37 21 c-21 12 -39 28 -41 35 -2 12 60 57 80 59 4 0 23 -10 43 -21z m497 -28 c11 -9 -3 -25 -44 -50 l-37 -22 -40 23 c-23 13 -41 28 -41 34 0 7 19 23 43 37 l42 25 35 -20 c19 -12 38 -24 42 -27z m-1322 -16 c0 -6 -9 -20 -20 -30 -36 -33 -25 -48 20 -25 69 35 106 23 69 -24 -16 -20 -19 -37 -17 -86 l3 -60 184 106 c199 115 196 114 260 65 l23 -18 -230 -133 -231 -132 49 -25 c28 -14 50 -30 50 -36 0 -11 -69 -57 -84 -57 -4 0 -6 7 -6 16 0 9 -22 25 -53 39 -43 20 -59 23 -86 15 -42 -12 -61 -28 -61 -51 0 -12 -7 -19 -19 -19 -22 0 -91 38 -91 50 0 17 81 61 101 55 20 -7 21 -4 18 152 -1 88 1 165 5 172 12 18 86 50 103 44 7 -3 13 -11 13 -18z m711 -27 c22 -12 39 -25 39 -30 0 -4 -18 -20 -41 -35 l-40 -26 -45 21 c-24 12 -44 27 -44 34 0 12 65 57 84 58 4 0 26 -10 47 -22z m229 0 c22 -13 40 -28 40 -34 0 -6 -20 -22 -45 -35 l-44 -23 -38 21 c-21 12 -39 26 -41 32 -3 9 63 59 81 60 4 1 26 -9 47 -21z m230 -3 c22 -14 40 -29 40 -34 0 -12 -67 -51 -87 -51 -19 0 -83 38 -83 49 0 9 70 59 83 60 4 1 25 -10 47 -24z m231 -7 c22 -12 39 -28 39 -36 0 -22 -31 -41 -65 -42 -39 0 -247 -119 -260 -148 -7 -15 -19 -22 -40 -22 -38 -1 -236 -117 -249 -146 -5 -12 -24 -29 -43 -39 -18 -10 -31 -21 -28 -25 2 -3 -8 -5 -23 -2 -18 2 -49 -9 -92 -33 -36 -20 -74 -39 -84 -41 -11 -2 -45 -19 -75 -37 -31 -19 -75 -44 -98 -57 -24 -13 -45 -32 -49 -42 -3 -10 -15 -18 -27 -18 -23 0 -209 -101 -244 -132 -13 -12 -29 -18 -40 -14 -11 3 -28 -1 -39 -9 -50 -38 -110 8 -99 76 5 28 3 38 -9 42 -23 9 -20 24 9 43 26 17 55 10 36 -9 -13 -13 -15 -77 -2 -77 5 0 11 5 13 11 2 7 12 7 31 0 40 -15 54 -14 59 7 7 24 216 146 246 144 13 -1 20 2 17 8 -3 6 5 10 18 10 15 0 26 7 29 18 6 22 985 588 1022 591 4 1 26 -9 47 -21z m-807 -59 c20 -12 36 -25 36 -30 0 -5 -18 -20 -41 -35 l-41 -26 -44 24 c-24 12 -44 28 -44 34 0 11 68 53 87 54 6 0 28 -9 47 -21z m230 0 c20 -12 36 -26 36 -33 0 -6 -19 -22 -43 -35 l-43 -24 -42 24 c-23 13 -42 29 -42 34 0 11 68 54 87 55 6 0 28 -9 47 -21z m227 -1 c22 -12 38 -28 37 -36 -2 -7 -20 -23 -41 -35 l-37 -21 -45 22 c-25 12 -45 26 -45 31 0 9 69 59 84 60 4 1 26 -9 47 -21z m-546 -98 c0 -8 -18 -25 -40 -37 l-41 -22 -42 25 c-23 14 -40 30 -36 35 3 5 22 20 42 33 l37 24 40 -22 c22 -12 40 -28 40 -36z m953 44 l22 -15 0 -458 c0 -252 -3 -460 -6 -464 -3 -3 -20 3 -37 14 -53 32 -91 25 -199 -37 -108 -61 -119 -79 -67 -112 17 -11 27 -22 23 -25 -13 -7 -84 41 -84 57 0 17 25 35 140 101 67 39 94 49 128 49 l42 -1 0 454 c0 249 3 453 8 453 4 0 18 -7 30 -16z m-750 -14 c17 -11 32 -25 32 -32 0 -7 -18 -23 -40 -36 l-40 -22 -39 20 c-22 11 -42 24 -46 29 -6 12 62 61 85 61 8 0 30 -9 48 -20z m226 -1 c20 -12 36 -27 36 -35 0 -8 -19 -24 -43 -35 l-43 -21 -37 22 c-45 27 -47 42 -4 68 41 26 49 26 91 1z m-583 -61 c48 -27 47 -46 -3 -73 -35 -19 -37 -19 -77 0 -23 10 -41 25 -41 34 0 12 52 52 79 60 2 1 21 -9 42 -21z m229 0 c22 -13 40 -30 40 -39 0 -15 -58 -49 -85 -49 -20 0 -75 33 -75 46 0 9 64 61 78 63 2 1 21 -9 42 -21z m229 -2 c55 -29 57 -42 7 -71 l-45 -27 -41 23 c-22 12 -40 28 -40 35 0 13 57 52 78 53 7 1 25 -5 41 -13z m-567 -72 l42 -27 -28 -23 c-40 -35 -67 -39 -109 -14 -20 12 -37 27 -37 33 0 11 63 53 83 56 4 1 26 -11 49 -25z m222 3 c22 -12 41 -28 43 -34 3 -7 -16 -23 -42 -35 l-46 -23 -37 21 c-20 12 -38 26 -40 32 -3 9 62 60 78 61 3 0 23 -9 44 -22z m274 -35 c2 -6 -16 -22 -40 -36 l-42 -25 -41 22 c-22 12 -40 28 -40 35 0 7 18 23 40 37 l40 24 40 -23 c21 -13 41 -28 43 -34z m-387 -34 c22 -12 39 -27 39 -33 0 -7 -19 -22 -43 -35 l-43 -23 -42 22 c-23 12 -42 26 -42 31 0 10 68 58 84 59 4 1 26 -9 47 -21z m232 -3 c20 -10 37 -24 37 -31 0 -14 -64 -54 -85 -54 -18 0 -85 39 -85 50 0 9 82 61 90 57 3 -1 22 -11 43 -22z m-813 -65 c22 -11 40 -27 40 -35 0 -8 -19 -24 -42 -36 l-42 -22 -42 23 c-48 25 -48 35 -1 67 40 27 40 27 87 3z m464 -1 c20 -12 36 -27 36 -34 0 -7 -20 -23 -44 -36 l-44 -23 -41 27 c-23 15 -41 29 -41 32 0 8 74 54 87 54 6 1 28 -8 47 -20z m227 -1 c22 -12 38 -28 37 -36 -2 -7 -20 -23 -41 -35 l-38 -21 -44 23 c-24 13 -42 28 -39 35 4 10 70 55 83 56 2 0 21 -10 42 -22z m-591 -69 c0 -41 0 -41 -23 -26 -13 8 -32 17 -42 19 -16 3 -12 8 20 26 22 11 41 21 43 22 1 0 2 -19 2 -41z m-207 2 c24 -15 26 -19 12 -25 -9 -3 -25 -6 -34 -6 -10 0 -29 -9 -43 -20 -23 -17 -27 -18 -46 -4 -30 21 -28 31 16 53 47 25 60 25 95 2z m487 -37 c0 -7 -17 -14 -40 -16 l-40 -4 0 39 0 38 40 -22 c22 -13 40 -28 40 -35z m196 35 c39 -23 43 -43 14 -59 -18 -10 -49 -8 -117 6 -34 7 -28 27 15 52 46 27 47 27 88 1z m474 -417 l0 -394 -37 28 c-21 15 -51 38 -66 51 -17 13 -42 23 -61 23 -42 0 -170 -78 -174 -105 -2 -16 25 -41 113 -108 63 -48 115 -93 115 -98 0 -6 -11 -2 -24 8 -245 185 -251 190 -241 216 3 6 48 36 101 66 72 39 103 52 125 49 34 -5 35 -3 43 102 14 169 47 518 52 547 4 30 6 32 29 21 l25 -11 0 -395z m-1000 319 c0 -9 -82 -51 -100 -51 -8 0 -28 8 -43 19 -38 25 -19 39 58 43 62 3 85 0 85 -11z m44 -52 c33 -39 33 -45 -4 -64 -29 -15 -33 -15 -70 6 -22 13 -40 28 -40 35 0 13 56 52 77 53 6 1 23 -13 37 -30z m372 22 c-3 -4 -19 -14 -36 -21 -25 -10 -36 -10 -56 0 -39 21 -28 30 37 30 33 0 58 -4 55 -9z m-105 -21 c10 -6 19 -15 19 -20 0 -12 -110 -74 -117 -66 -4 3 -2 6 4 6 6 0 23 20 37 45 30 50 29 49 57 35z"></path>    </g> <g id="layer106" fill="#647a8a" stroke="none">  <path d="M0 1500 l0 -1500 3000 0 3000 0 0 1500 0 1500 -3000 0 -3000 0 0 -1500z m3676 919 c19 -11 34 -26 34 -33 0 -7 -45 -38 -99 -70 l-100 -57 -41 23 c-22 13 -39 29 -38 36 3 14 174 120 197 121 7 1 29 -8 47 -20z m105 -65 c22 -14 39 -30 36 -37 -5 -15 -177 -117 -199 -117 -26 0 -88 40 -82 53 4 9 180 119 202 126 1 1 21 -10 43 -25z m110 -66 c22 -13 38 -29 37 -38 -3 -16 -174 -120 -198 -120 -24 0 -82 39 -77 53 3 9 175 120 195 126 2 1 21 -9 43 -21z m-453 -8 c17 -11 32 -25 32 -32 0 -7 -18 -23 -40 -36 l-41 -23 -39 22 c-22 13 -40 28 -40 35 0 14 57 52 80 53 8 1 30 -8 48 -19z m-122 -65 c24 -14 41 -31 38 -38 -2 -6 -21 -22 -41 -33 l-37 -22 -43 21 c-24 12 -43 26 -43 33 0 9 65 61 79 63 2 1 24 -10 47 -24z m229 4 c44 -26 42 -44 -7 -73 l-38 -21 -37 21 c-21 12 -39 28 -41 35 -2 12 60 57 80 59 4 0 23 -10 43 -21z m497 -28 c11 -9 -3 -25 -44 -50 l-37 -22 -40 23 c-23 13 -41 28 -41 34 0 7 19 23 43 37 l42 25 35 -20 c19 -12 38 -24 42 -27z m-1322 -16 c0 -6 -9 -20 -20 -30 -36 -33 -25 -48 20 -25 69 35 106 23 69 -24 -16 -20 -19 -37 -17 -86 l3 -60 184 106 c199 115 196 114 260 65 l23 -18 -230 -133 -231 -132 49 -25 c28 -14 50 -30 50 -36 0 -11 -69 -57 -84 -57 -4 0 -6 7 -6 16 0 9 -22 25 -53 39 -43 20 -59 23 -86 15 -42 -12 -61 -28 -61 -51 0 -12 -7 -19 -19 -19 -22 0 -91 38 -91 50 0 17 81 61 101 55 20 -7 21 -4 18 152 -1 88 1 165 5 172 12 18 86 50 103 44 7 -3 13 -11 13 -18z m711 -27 c22 -12 39 -25 39 -30 0 -4 -18 -20 -41 -35 l-40 -26 -45 21 c-24 12 -44 27 -44 34 0 12 65 57 84 58 4 0 26 -10 47 -22z m229 0 c22 -13 40 -28 40 -34 0 -6 -20 -22 -45 -35 l-44 -23 -38 21 c-21 12 -39 26 -41 32 -3 9 63 59 81 60 4 1 26 -9 47 -21z m230 -3 c22 -14 40 -29 40 -34 0 -12 -67 -51 -87 -51 -19 0 -83 38 -83 49 0 9 70 59 83 60 4 1 25 -10 47 -24z m231 -7 c22 -12 39 -28 39 -36 0 -22 -31 -41 -65 -42 -39 0 -247 -119 -260 -148 -7 -15 -19 -22 -40 -23 -38 -1 -237 -116 -249 -145 -5 -11 -25 -30 -45 -41 l-36 -21 36 -17 36 -17 7 -380 c3 -208 3 -385 -1 -393 -7 -11 -23 -3 -72 35 -46 35 -74 50 -96 50 -41 0 -169 -78 -173 -105 -2 -16 25 -41 113 -108 63 -48 115 -93 115 -98 0 -6 -11 -2 -24 8 -169 127 -235 180 -239 188 -2 6 -1 42 3 80 5 39 13 131 20 205 37 419 38 432 68 459 25 22 23 21 -23 -4 -141 -78 -175 -100 -181 -117 -3 -10 -15 -18 -27 -18 -23 0 -209 -101 -244 -132 -13 -12 -29 -18 -40 -14 -11 3 -28 -1 -39 -9 -50 -38 -110 8 -99 76 5 28 3 38 -9 42 -23 9 -20 24 9 43 26 17 55 10 36 -9 -13 -13 -15 -77 -2 -77 5 0 11 5 13 11 2 7 12 7 31 0 40 -15 54 -14 59 7 7 24 216 146 246 144 13 -1 20 2 17 8 -3 6 5 10 18 10 15 0 26 7 29 18 6 22 985 588 1022 591 4 1 26 -9 47 -21z m-807 -59 c20 -12 36 -25 36 -30 0 -5 -18 -20 -41 -35 l-41 -26 -44 24 c-24 12 -44 28 -44 34 0 11 68 53 87 54 6 0 28 -9 47 -21z m230 0 c20 -12 36 -26 36 -33 0 -6 -19 -22 -43 -35 l-43 -24 -42 24 c-23 13 -42 29 -42 34 0 11 68 54 87 55 6 0 28 -9 47 -21z m227 -1 c22 -12 38 -28 37 -36 -2 -7 -20 -23 -41 -35 l-37 -21 -45 22 c-25 12 -45 26 -45 31 0 9 69 59 84 60 4 1 26 -9 47 -21z m-546 -98 c0 -8 -18 -25 -40 -37 l-41 -22 -42 25 c-23 14 -40 30 -36 35 3 5 22 20 42 33 l37 24 40 -22 c22 -12 40 -28 40 -36z m953 44 l22 -15 0 -458 c0 -252 -3 -460 -6 -464 -3 -3 -20 3 -37 14 -53 32 -91 25 -199 -37 -108 -61 -119 -79 -67 -112 17 -11 27 -22 22 -25 -13 -8 -83 40 -83 58 0 16 26 35 140 100 67 39 94 49 128 49 l42 -1 0 454 c0 249 3 453 8 453 4 0 18 -7 30 -16z m-750 -14 c17 -11 32 -25 32 -32 0 -7 -18 -23 -40 -36 l-40 -22 -39 20 c-22 11 -42 24 -46 29 -6 12 62 61 85 61 8 0 30 -9 48 -20z m226 -1 c20 -12 36 -27 36 -35 0 -8 -19 -24 -43 -35 l-43 -21 -37 22 c-45 27 -47 42 -4 68 41 26 49 26 91 1z m-583 -61 c48 -27 47 -46 -3 -73 -35 -19 -37 -19 -77 0 -23 10 -41 25 -41 34 0 12 52 52 79 60 2 1 21 -9 42 -21z m229 0 c22 -13 40 -30 40 -39 0 -15 -58 -49 -85 -49 -20 0 -75 33 -75 46 0 9 64 61 78 63 2 1 21 -9 42 -21z m229 -2 c55 -29 57 -42 7 -71 l-45 -27 -41 23 c-22 12 -40 28 -40 35 0 13 57 52 78 53 7 1 25 -5 41 -13z m-567 -72 l42 -27 -28 -23 c-40 -35 -67 -39 -109 -14 -20 12 -37 27 -37 33 0 11 63 53 83 56 4 1 26 -11 49 -25z m222 3 c22 -12 41 -28 43 -34 3 -7 -16 -23 -42 -35 l-46 -23 -37 21 c-20 12 -38 26 -40 32 -3 9 62 60 78 61 3 0 23 -9 44 -22z m274 -35 c2 -6 -16 -22 -40 -36 l-42 -25 -41 22 c-22 12 -40 28 -40 35 0 7 18 23 40 37 l40 24 40 -23 c21 -13 41 -28 43 -34z m-387 -34 c22 -12 39 -27 39 -33 0 -7 -19 -22 -43 -35 l-43 -23 -42 22 c-23 12 -42 26 -42 31 0 10 68 58 84 59 4 1 26 -9 47 -21z m232 -3 c20 -10 37 -24 37 -31 0 -14 -64 -54 -85 -54 -18 0 -85 39 -85 50 0 9 82 61 90 57 3 -1 22 -11 43 -22z m-813 -65 c22 -11 40 -27 40 -35 0 -8 -19 -24 -42 -36 l-42 -22 -42 23 c-48 25 -48 35 -1 67 40 27 40 27 87 3z m464 -1 c20 -12 36 -27 36 -34 0 -7 -20 -23 -44 -36 l-44 -23 -41 27 c-23 15 -41 29 -41 32 0 8 74 54 87 54 6 1 28 -8 47 -20z m227 -1 c22 -12 38 -28 37 -36 -2 -7 -20 -23 -41 -35 l-38 -21 -44 23 c-24 13 -42 28 -39 35 4 10 70 55 83 56 2 0 21 -10 42 -22z m-591 -69 c0 -41 0 -41 -23 -26 -13 8 -32 17 -42 19 -16 3 -12 8 20 26 22 11 41 21 43 22 1 0 2 -19 2 -41z m155 -34 c-13 -104 -23 -116 -24 -29 -1 81 3 99 21 88 6 -4 7 -29 3 -59z m-362 36 c24 -15 26 -19 12 -25 -9 -3 -25 -6 -34 -6 -10 0 -29 -9 -43 -20 -23 -17 -27 -18 -46 -4 -30 21 -28 31 16 53 47 25 60 25 95 2z m487 -37 c0 -7 -17 -14 -40 -16 l-40 -4 0 39 0 38 40 -22 c22 -13 40 -28 40 -35z m196 35 c39 -23 43 -43 14 -59 -18 -10 -49 -8 -117 6 -34 7 -28 27 15 52 46 27 47 27 88 1z m-526 -98 c0 -9 -82 -51 -100 -51 -8 0 -28 8 -43 19 -38 25 -19 39 58 43 62 3 85 0 85 -11z m44 -52 c33 -39 33 -45 -4 -64 -29 -15 -33 -15 -70 6 -22 13 -40 28 -40 35 0 13 56 52 77 53 6 1 23 -13 37 -30z m372 22 c-3 -4 -19 -14 -36 -21 -25 -10 -36 -10 -56 0 -39 21 -28 30 37 30 33 0 58 -4 55 -9z m-105 -21 c10 -6 19 -15 19 -20 0 -12 -110 -74 -117 -66 -4 3 -2 6 4 6 6 0 23 20 37 45 30 50 29 49 57 35z m-134 -17 c-4 -3 -7 0 -7 7 0 7 3 10 7 7 3 -4 3 -10 0 -14z"></path>  <path d="M2680 1990 c0 -7 3 -10 7 -7 3 4 3 10 0 14 -4 3 -7 0 -7 -7z"></path>            </g> <g id="layer107" fill="#e48e10" stroke="none">  <path d="M0 1500 l0 -1500 3000 0 3000 0 0 1500 0 1500 -3000 0 -3000 0 0 -1500z m3677 925 c23 -14 43 -30 43 -35 0 -6 6 -10 14 -10 27 0 86 -42 86 -60 0 -13 6 -17 19 -13 19 5 101 -40 101 -55 0 -4 -6 -14 -12 -21 -11 -11 -9 -11 11 -1 21 11 30 9 68 -11 46 -25 53 -44 26 -66 -14 -11 -12 -11 13 1 28 14 33 13 72 -10 26 -16 42 -32 42 -44 0 -11 9 -24 20 -30 20 -10 20 -21 20 -500 0 -270 -2 -490 -5 -490 -3 0 -23 9 -45 20 -58 30 -83 25 -181 -31 -118 -68 -122 -74 -79 -110 45 -38 31 -49 -20 -15 -65 43 -59 53 75 131 83 49 108 59 148 59 l47 1 -2 454 -3 454 -28 10 c-24 8 -43 0 -147 -59 -66 -37 -122 -76 -126 -86 -3 -12 -15 -18 -34 -18 -27 0 -201 -92 -244 -129 -18 -15 -19 -32 -13 -446 4 -236 3 -435 -1 -442 -5 -8 -27 3 -72 37 -45 35 -73 50 -95 50 -41 0 -169 -78 -173 -105 -2 -16 25 -41 113 -108 63 -48 115 -93 115 -99 0 -11 -45 15 -71 41 -8 9 -54 45 -102 81 -47 36 -88 70 -90 75 -2 6 -1 42 3 80 5 39 13 131 20 205 17 191 18 202 31 325 6 61 17 116 23 124 6 8 7 12 1 9 -119 -66 -177 -104 -186 -119 -5 -10 -17 -19 -27 -19 -28 0 -254 -132 -259 -151 -4 -15 -9 -16 -30 -6 -18 8 -29 8 -44 -1 -30 -19 -56 -14 -79 15 -16 21 -20 35 -15 60 4 25 2 35 -10 39 -8 3 -15 15 -15 25 0 13 -5 17 -16 12 -24 -9 -106 38 -101 58 3 11 -1 15 -12 12 -9 -2 -31 6 -50 17 -29 18 -32 23 -20 35 8 8 44 15 84 17 62 3 70 1 69 -14 -1 -10 1 -16 5 -13 4 2 31 -20 59 -50 29 -30 47 -57 42 -60 -13 -8 -13 -75 -1 -75 5 0 11 4 13 10 2 6 17 6 40 -2 43 -13 45 -12 50 23 2 14 16 40 30 58 15 17 35 45 45 62 18 30 19 30 83 26 36 -2 76 -8 89 -12 17 -6 22 -5 17 3 -5 8 2 12 18 12 21 0 26 5 26 24 0 27 -16 36 -63 36 -40 0 -62 13 -54 32 4 11 -1 14 -18 10 -34 -6 -98 35 -92 59 3 12 0 16 -10 12 -8 -3 -21 4 -29 16 -34 47 -127 67 -169 35 -16 -12 -19 -25 -17 -84 1 -39 -2 -70 -7 -70 -4 0 -16 9 -26 20 -12 13 -30 20 -54 19 -65 0 -181 -26 -200 -43 -15 -14 -24 -15 -40 -6 -12 6 -21 19 -21 28 0 21 82 68 99 58 6 -4 11 -1 11 8 0 20 76 59 101 53 14 -4 19 0 19 14 0 22 73 63 100 56 15 -4 17 7 19 107 l2 112 -35 36 c-43 45 -45 70 -8 108 68 67 236 67 304 0 42 -43 37 -61 -32 -101 -58 -33 -60 -35 -60 -76 0 -23 3 -44 8 -46 4 -3 88 42 187 100 l180 105 35 -19 c19 -10 42 -25 50 -33 19 -18 57 -21 64 -4 3 7 -2 10 -14 7 -22 -6 -103 44 -97 60 6 18 80 58 99 53 9 -2 18 4 21 14 3 10 23 28 46 39 l41 21 39 -20 c22 -11 44 -26 48 -33 12 -20 53 -29 53 -11 0 8 -7 14 -16 14 -22 0 -94 43 -94 57 0 9 193 132 209 133 2 0 24 -11 48 -25z m-932 -790 c-13 -104 -23 -116 -24 -29 -1 81 3 99 21 88 6 -4 7 -29 3 -59z m95 33 c45 -31 43 -42 -7 -49 l-43 -5 0 38 c0 44 5 46 50 16z m-123 -165 c-4 -3 -7 0 -7 7 0 7 3 10 7 7 3 -4 3 -10 0 -14z m373 -998 c22 -14 40 -27 40 -30 0 -3 -15 4 -32 15 -55 34 -101 26 -203 -33 -105 -61 -117 -84 -63 -117 18 -11 28 -20 22 -20 -16 0 -77 43 -81 57 -7 21 212 153 255 153 12 0 40 -11 62 -25z"></path>                                                                                                    </g> <g id="layer108" fill="#6da6ad" stroke="none">  <path d="M0 1500 l0 -1500 3000 0 3000 0 0 1500 0 1500 -3000 0 -3000 0 0 -1500z m3677 925 c23 -14 43 -30 43 -35 0 -6 6 -10 14 -10 27 0 86 -42 86 -60 0 -13 6 -17 19 -13 19 5 101 -40 101 -55 0 -4 -6 -14 -12 -21 -11 -11 -9 -11 11 -1 21 11 30 9 68 -11 46 -25 53 -44 26 -66 -14 -11 -12 -11 13 1 28 14 33 13 72 -10 26 -16 42 -32 42 -44 0 -11 9 -24 20 -30 20 -10 20 -21 20 -500 0 -270 -2 -490 -5 -490 -3 0 -23 9 -45 20 -58 30 -83 25 -181 -31 -118 -68 -122 -74 -79 -110 45 -38 31 -48 -29 -19 -33 15 -59 21 -78 17 -39 -8 -203 -105 -210 -124 -4 -10 6 -26 28 -45 35 -31 24 -29 -23 4 -16 11 -28 28 -28 38 0 29 -136 130 -175 130 -41 0 -169 -78 -173 -105 -2 -16 25 -41 113 -108 63 -48 115 -93 115 -99 0 -11 -45 15 -71 41 -8 9 -54 45 -102 81 -47 36 -88 70 -90 75 -2 6 -1 42 3 80 5 39 13 131 20 205 17 191 18 202 31 325 6 61 17 116 23 124 6 8 7 12 1 9 -119 -66 -177 -104 -186 -119 -5 -10 -17 -19 -27 -19 -28 0 -254 -132 -259 -151 -4 -15 -9 -16 -30 -6 -18 8 -29 8 -44 -1 -30 -19 -56 -14 -79 15 -16 21 -20 35 -15 60 4 25 2 35 -10 39 -8 3 -15 15 -15 25 0 13 -5 17 -16 12 -24 -9 -106 38 -101 58 3 11 -1 15 -12 12 -9 -2 -31 6 -50 17 -29 18 -32 23 -20 35 8 8 44 15 84 17 62 3 70 1 69 -14 -1 -10 1 -16 5 -13 4 2 31 -20 59 -50 29 -30 47 -57 42 -60 -13 -8 -13 -75 -1 -75 5 0 11 4 13 10 2 6 17 6 40 -2 43 -13 45 -12 50 23 2 14 16 40 30 58 15 17 35 45 45 62 18 30 19 30 83 26 36 -2 76 -8 89 -12 17 -6 22 -5 17 3 -5 8 2 12 18 12 21 0 26 5 26 24 0 27 -16 36 -63 36 -40 0 -62 13 -54 32 4 11 -1 14 -18 10 -34 -6 -98 35 -92 59 3 12 0 16 -10 12 -8 -3 -21 4 -29 16 -34 47 -127 67 -169 35 -16 -12 -19 -25 -17 -84 1 -39 -2 -70 -7 -70 -4 0 -16 9 -26 20 -12 13 -30 20 -54 19 -65 0 -181 -26 -200 -43 -15 -14 -24 -15 -40 -6 -12 6 -21 19 -21 28 0 21 82 68 99 58 6 -4 11 -1 11 8 0 20 76 59 101 53 14 -4 19 0 19 14 0 22 73 63 100 56 15 -4 17 7 19 107 l2 112 -35 36 c-43 45 -45 70 -8 108 68 67 236 67 304 0 42 -43 37 -61 -32 -101 -58 -33 -60 -35 -60 -76 0 -23 3 -44 8 -46 4 -3 88 42 187 100 l180 105 35 -19 c19 -10 42 -25 50 -33 19 -18 57 -21 64 -4 3 7 -2 10 -14 7 -22 -6 -103 44 -97 60 6 18 80 58 99 53 9 -2 18 4 21 14 3 10 23 28 46 39 l41 21 39 -20 c22 -11 44 -26 48 -33 12 -20 53 -29 53 -11 0 8 -7 14 -16 14 -22 0 -94 43 -94 57 0 9 193 132 209 133 2 0 24 -11 48 -25z m-932 -790 c-13 -104 -23 -116 -24 -29 -1 81 3 99 21 88 6 -4 7 -29 3 -59z m95 33 c45 -31 43 -42 -7 -49 l-43 -5 0 38 c0 44 5 46 50 16z m-123 -165 c-4 -3 -7 0 -7 7 0 7 3 10 7 7 3 -4 3 -10 0 -14z m373 -998 c22 -14 40 -27 40 -30 0 -3 -15 4 -32 15 -55 34 -101 26 -203 -33 -105 -61 -117 -84 -63 -117 18 -11 28 -20 22 -20 -16 0 -77 43 -81 57 -7 21 212 153 255 153 12 0 40 -11 62 -25z"></path>                                  <path d="M3960 1994 c-63 -36 -118 -71 -122 -77 -10 -15 -10 -926 0 -911 4 6 52 37 107 69 83 49 108 59 148 59 l47 1 0 453 0 452 -26 10 c-14 6 -28 10 -32 10 -4 0 -59 -30 -122 -66z"></path>                                                                              </g> <g id="layer109" fill="#9a9a9a" stroke="none">  <path d="M0 1500 l0 -1500 3000 0 3000 0 0 1500 0 1500 -3000 0 -3000 0 0 -1500z m3840 1051 c595 -345 601 -348 548 -385 -22 -16 -23 -16 -35 14 -7 16 -30 41 -50 54 -46 30 -884 517 -968 563 -103 56 -100 57 -436 -136 -1164 -668 -1164 -668 -1180 -700 -14 -26 -18 -29 -34 -17 -9 7 -16 21 -13 31 5 28 1531 905 1573 904 21 0 203 -100 595 -328z m-163 -126 c23 -14 43 -30 43 -35 0 -6 6 -10 14 -10 27 0 86 -42 86 -60 0 -13 6 -17 19 -13 19 5 101 -40 101 -55 0 -4 -6 -14 -12 -21 -11 -11 -9 -11 11 -1 21 11 30 9 68 -11 46 -25 53 -44 26 -66 -14 -11 -12 -11 13 1 28 14 33 13 72 -10 26 -16 42 -32 42 -44 0 -11 9 -24 20 -30 20 -10 20 -21 20 -500 0 -270 -2 -490 -5 -490 -3 0 -23 9 -45 20 -58 30 -83 25 -181 -31 -118 -68 -122 -74 -79 -110 45 -38 31 -48 -29 -19 -33 15 -59 21 -78 17 -39 -8 -203 -105 -210 -124 -4 -10 6 -26 28 -45 35 -31 24 -29 -23 4 -16 11 -28 28 -28 38 0 29 -136 130 -175 130 -41 0 -169 -78 -173 -105 -2 -16 25 -41 113 -108 63 -48 115 -92 115 -97 0 -15 -22 -12 -65 10 -51 26 -75 21 -183 -42 -114 -66 -120 -77 -61 -112 21 -12 28 -21 21 -28 -7 -7 -22 -4 -47 11 -56 33 -88 27 -197 -35 -108 -61 -121 -82 -68 -109 17 -9 30 -20 30 -26 0 -11 -70 27 -82 45 -4 6 -8 215 -8 464 l0 452 -26 12 c-20 9 -30 9 -45 0 -30 -19 -56 -14 -79 15 -16 21 -20 35 -15 60 4 25 2 35 -10 39 -8 3 -15 15 -15 25 0 13 -5 17 -16 12 -24 -9 -106 38 -101 58 3 11 -1 15 -12 12 -9 -2 -31 6 -50 17 -29 18 -32 23 -20 35 8 8 44 15 84 17 62 3 70 1 69 -14 -1 -10 1 -16 5 -13 4 2 31 -20 59 -50 29 -30 47 -57 42 -60 -13 -8 -13 -75 -1 -75 5 0 11 4 13 10 2 6 17 6 40 -2 43 -13 45 -12 50 23 2 14 16 40 30 58 15 17 35 45 45 62 18 30 19 30 83 26 36 -2 76 -8 89 -12 17 -6 22 -5 17 3 -5 8 2 12 18 12 21 0 26 5 26 24 0 27 -16 36 -63 36 -40 0 -62 13 -54 32 4 11 -1 14 -18 10 -34 -6 -98 35 -92 59 3 12 0 16 -10 12 -8 -3 -21 4 -29 16 -34 47 -127 67 -169 35 -16 -12 -19 -25 -17 -84 1 -39 -2 -70 -7 -70 -4 0 -16 9 -26 20 -12 13 -30 20 -54 19 -65 0 -181 -26 -200 -43 -15 -14 -24 -15 -40 -6 -12 6 -21 19 -21 28 0 21 82 68 99 58 6 -4 11 -1 11 8 0 20 76 59 101 53 14 -4 19 0 19 14 0 22 73 63 100 56 15 -4 17 7 19 107 l2 112 -35 36 c-43 45 -45 70 -8 108 68 67 236 67 304 0 42 -43 37 -61 -32 -101 -58 -33 -60 -35 -60 -76 0 -23 3 -44 8 -46 4 -3 88 42 187 100 l180 105 35 -19 c19 -10 42 -25 50 -33 19 -18 57 -21 64 -4 3 7 -2 10 -14 7 -22 -6 -103 44 -97 60 6 18 80 58 99 53 9 -2 18 4 21 14 3 10 23 28 46 39 l41 21 39 -20 c22 -11 44 -26 48 -33 12 -20 53 -29 53 -11 0 8 -7 14 -16 14 -22 0 -94 43 -94 57 0 9 193 132 209 133 2 0 24 -11 48 -25z m-932 -790 c-13 -104 -23 -116 -24 -29 -1 81 3 99 21 88 6 -4 7 -29 3 -59z m95 33 c45 -31 43 -42 -7 -49 l-43 -5 0 38 c0 44 5 46 50 16z m-123 -165 c-4 -3 -7 0 -7 7 0 7 3 10 7 7 3 -4 3 -10 0 -14z"></path>  <path d="M3744 2258 c-4 -7 -3 -8 4 -4 7 4 12 9 12 12 0 8 -9 4 -16 -8z"></path>  <path d="M3315 2220 c3 -5 8 -10 11 -10 3 0 2 5 -1 10 -3 6 -8 10 -11 10 -3 0 -2 -4 1 -10z"></path>  <path d="M3674 2218 c-4 -7 -3 -8 4 -4 7 4 12 9 12 12 0 8 -9 4 -16 -8z"></path>  <path d="M3585 2187 c0 -18 6 -22 32 -22 17 0 29 4 26 8 -3 4 1 15 8 23 11 13 9 14 -14 3 -19 -8 -30 -9 -39 -1 -10 8 -13 5 -13 -11z"></path>  <path d="M3848 2186 c-43 -26 -64 -45 -29 -26 18 9 29 9 49 0 22 -10 24 -9 12 4 -10 13 -10 19 0 31 16 19 14 18 -32 -9z"></path>  <path d="M3360 2183 c0 -8 4 -11 10 -8 5 3 19 1 30 -5 16 -8 18 -8 14 4 -7 20 -54 28 -54 9z"></path>  <path d="M3435 2150 c3 -5 8 -10 11 -10 3 0 2 5 -1 10 -3 6 -8 10 -11 10 -3 0 -2 -4 1 -10z"></path>  <path d="M3665 2150 c3 -5 8 -10 11 -10 3 0 2 5 -1 10 -3 6 -8 10 -11 10 -3 0 -2 -4 1 -10z"></path>  <path d="M3465 2115 c0 -19 3 -21 18 -13 13 6 23 5 35 -4 12 -10 14 -10 8 0 -4 7 -2 20 6 29 12 15 11 15 -9 4 -15 -8 -29 -8 -40 -2 -15 7 -18 5 -18 -14z"></path>  <path d="M3696 2125 c4 -8 0 -23 -7 -33 -13 -15 -12 -16 3 -3 10 7 29 11 43 9 13 -3 22 -1 19 4 -3 5 0 16 8 25 12 15 11 15 -9 4 -17 -8 -29 -9 -43 -1 -16 9 -18 8 -14 -5z"></path>  <path d="M3927 2119 c5 -20 18 -25 27 -11 2 4 -4 13 -14 19 -15 10 -17 9 -13 -8z"></path>  <path d="M3775 2080 c3 -5 8 -10 11 -10 3 0 2 5 -1 10 -3 6 -8 10 -11 10 -3 0 -2 -4 1 -10z"></path>  <path d="M3414 2069 c-3 -6 -19 -9 -34 -7 -23 4 -29 0 -33 -19 -3 -19 -2 -21 10 -12 10 9 20 9 38 1 20 -9 23 -9 18 4 -3 8 0 21 7 29 7 8 10 15 7 15 -3 0 -9 -5 -13 -11z"></path>  <path d="M3631 2061 c-7 -5 -21 -7 -30 -4 -10 2 -21 -6 -29 -24 -9 -20 -9 -24 0 -15 16 16 60 15 78 0 12 -11 12 -10 1 4 -7 10 -11 25 -7 33 6 17 6 18 -13 6z"></path>  <path d="M3807 2058 c7 -8 10 -18 6 -21 -3 -4 -1 -7 5 -7 22 0 22 19 0 31 -20 11 -21 10 -11 -3z"></path>  <path d="M3161 2051 c-11 -7 -10 -11 7 -20 17 -9 19 -8 15 9 -3 11 -6 20 -7 20 0 0 -7 -4 -15 -9z"></path>  <path d="M3435 2010 c3 -5 8 -10 11 -10 3 0 2 5 -1 10 -3 6 -8 10 -11 10 -3 0 -2 -4 1 -10z"></path>  <path d="M3960 1957 c-77 -46 -106 -68 -108 -85 -5 -33 12 -28 123 37 82 48 101 63 103 85 2 14 0 26 -5 25 -4 0 -55 -28 -113 -62z"></path>  <path d="M3229 1998 c11 -15 11 -21 0 -35 -13 -15 -12 -15 9 -2 18 11 26 11 42 2 16 -11 18 -10 14 2 -4 9 0 23 7 33 11 14 11 15 -1 5 -8 -7 -23 -13 -35 -13 -12 0 -27 6 -35 13 -12 10 -12 9 -1 -5z"></path>  <path d="M3465 1991 c4 -7 1 -19 -7 -28 -12 -15 -11 -15 10 -4 14 8 28 8 40 2 14 -7 17 -5 17 14 0 18 -4 21 -15 15 -8 -5 -23 -4 -33 2 -14 7 -17 7 -12 -1z"></path>  <path d="M3696 1985 c4 -8 11 -15 16 -15 6 0 5 6 -2 15 -7 8 -14 15 -16 15 -2 0 -1 -7 2 -15z"></path>  <path d="M3042 1981 c-11 -7 -11 -9 2 -14 10 -4 16 -1 16 8 0 17 -1 17 -18 6z"></path>  <path d="M3075 1950 c3 -5 8 -10 11 -10 3 0 2 5 -1 10 -3 6 -8 10 -11 10 -3 0 -2 -4 1 -10z"></path>  <path d="M3424 1938 c-4 -7 -3 -8 4 -4 7 4 12 9 12 12 0 8 -9 4 -16 -8z"></path>  <path d="M3167 1929 c-10 -6 -24 -9 -30 -6 -7 3 -18 -6 -24 -20 -10 -21 -10 -23 3 -13 7 7 22 10 32 8 12 -3 22 3 29 18 6 13 10 24 10 24 -1 0 -10 -5 -20 -11z"></path>  <path d="M3339 1927 c11 -14 11 -20 0 -34 -13 -15 -12 -15 9 -4 13 7 30 10 37 7 7 -2 15 4 18 13 3 14 0 17 -13 14 -10 -3 -29 1 -41 8 -22 11 -23 11 -10 -4z"></path>  <path d="M3577 1914 c6 -15 23 -19 23 -5 0 5 -7 11 -14 14 -10 4 -13 1 -9 -9z"></path>  <path d="M3960 1866 l-105 -62 -3 -192 c-1 -106 1 -192 5 -192 4 0 56 28 115 62 l108 62 0 193 c0 106 -3 193 -7 192 -5 0 -55 -29 -113 -63z"></path>  <path d="M2923 1912 c-7 -5 -3 -11 13 -19 23 -11 24 -10 13 5 -8 9 -14 18 -14 19 0 1 -6 -1 -12 -5z"></path>  <path d="M3415 1880 c3 -5 8 -10 11 -10 3 0 2 5 -1 10 -3 6 -8 10 -11 10 -3 0 -2 -4 1 -10z"></path>  <path d="M3835 1445 c0 -247 1 -347 2 -222 2 126 2 328 0 450 -1 122 -2 20 -2 -228z"></path>  <path d="M3304 1868 c-4 -7 -3 -8 4 -4 7 4 12 9 12 12 0 8 -9 4 -16 -8z"></path>  <path d="M2995 1847 c0 -18 6 -22 32 -22 17 0 29 4 26 8 -3 4 1 15 8 23 11 13 9 14 -14 3 -19 -8 -30 -9 -39 -1 -10 8 -13 5 -13 -11z"></path>  <path d="M3223 1833 c-10 -20 -9 -21 14 -10 19 8 30 8 46 -3 20 -12 21 -12 9 3 -8 9 -12 20 -9 24 3 4 -7 8 -22 8 -19 0 -31 -7 -38 -22z"></path>  <path d="M3460 1844 c0 -16 9 -18 28 -5 10 6 9 10 -7 14 -14 3 -21 0 -21 -9z"></path>  <path d="M2800 1841 c0 -5 7 -11 14 -14 10 -4 13 -1 9 9 -6 15 -23 19 -23 5z"></path>    <path d="M3075 1810 c3 -5 8 -10 11 -10 3 0 2 5 -1 10 -3 6 -8 10 -11 10 -3 0 -2 -4 1 -10z"></path>  <path d="M2875 1775 c0 -18 3 -21 17 -14 9 5 23 6 31 3 9 -3 16 3 20 15 4 18 2 19 -14 10 -12 -6 -25 -6 -36 0 -15 7 -18 5 -18 -14z"></path>  <path d="M3107 1784 c3 -8 -1 -22 -8 -31 -13 -15 -12 -15 10 -4 12 7 31 11 41 8 13 -3 19 2 23 19 3 20 2 22 -10 13 -10 -9 -20 -9 -38 -1 -20 9 -23 9 -18 -4z"></path>  <path d="M3337 1779 c5 -20 18 -25 27 -11 2 4 -4 13 -14 19 -15 10 -17 9 -13 -8z"></path>  <path d="M3663 1697 l-103 -61 0 -188 c0 -122 4 -188 10 -188 6 0 58 27 115 61 l105 61 0 189 c0 145 -3 189 -12 188 -7 0 -59 -28 -115 -62z"></path>  <path d="M2515 1730 c3 -5 8 -10 11 -10 3 0 2 5 -1 10 -3 6 -8 10 -11 10 -3 0 -2 -4 1 -10z"></path>  <path d="M2995 1721 c6 -10 -1 -22 -21 -39 l-29 -24 38 22 c36 21 38 21 65 4 23 -15 25 -15 13 -1 -7 9 -11 24 -7 32 5 13 2 14 -15 5 -15 -9 -24 -8 -37 2 -13 11 -14 11 -7 -1z"></path>  <path d="M2540 1704 c0 -8 5 -12 10 -9 6 4 8 11 5 16 -9 14 -15 11 -15 -7z"></path>  <path d="M3230 1704 c0 -8 5 -12 10 -9 6 4 8 11 5 16 -9 14 -15 11 -15 -7z"></path>  <path d="M3107 1639 c3 -10 9 -16 14 -13 13 8 11 21 -5 27 -10 4 -12 0 -9 -14z"></path>    <path d="M3153 1533 l-93 -55 0 -455 c0 -250 3 -453 8 -451 4 2 54 30 112 63 82 47 113 59 144 59 32 -1 36 0 20 9 -21 12 -23 14 -74 57 -19 17 -50 40 -67 53 -18 12 -34 27 -36 32 -3 6 -1 42 3 80 5 39 13 131 20 205 17 191 18 202 31 325 6 61 16 116 22 123 14 17 12 17 -90 -45z"></path>  <path d="M3309 1542 l-54 -38 -13 -138 c-7 -76 -11 -140 -8 -143 8 -8 116 66 116 80 0 26 21 232 25 255 7 30 -3 28 -66 -16z"></path>  <path d="M2484 1528 c-4 -7 -3 -8 4 -4 7 4 12 9 12 12 0 8 -9 4 -16 -8z"></path>  <path d="M2870 1500 c0 -5 5 -10 11 -10 5 0 7 5 4 10 -3 6 -8 10 -11 10 -2 0 -4 -4 -4 -10z"></path>  <path d="M3963 1443 c-94 -54 -113 -70 -113 -89 0 -13 3 -24 6 -24 4 0 55 28 115 63 96 55 109 65 109 90 0 15 -1 27 -2 27 -2 -1 -54 -31 -115 -67z"></path>  <path d="M3963 1354 c-95 -55 -113 -70 -113 -90 0 -13 2 -24 5 -24 3 0 55 28 115 63 98 55 110 65 110 90 0 15 -1 27 -2 26 -2 0 -54 -29 -115 -65z"></path>      <path d="M2900 1256 l-105 -62 -3 -192 c-1 -106 1 -192 5 -191 5 0 55 28 113 62 l105 62 3 193 c1 105 -1 192 -5 191 -5 0 -55 -29 -113 -63z"></path>    <path d="M3962 1245 c-31 -22 -55 -72 -48 -101 16 -63 110 5 104 75 -3 41 -22 49 -56 26z"></path>      <path d="M3663 1075 c-25 -17 -47 -74 -37 -98 22 -59 110 11 102 81 -4 32 -33 40 -65 17z"></path>  <path d="M3256 1058 c-9 -12 -16 -35 -16 -51 0 -41 32 -32 46 13 19 56 -1 80 -30 38z"></path>      <path d="M2891 622 c-50 -50 -50 -112 -1 -112 37 0 83 87 63 118 -16 26 -32 25 -62 -6z"></path>  </g> <g id="layer110" fill="#d7a066" stroke="none">  <path d="M0 1500 l0 -1500 3000 0 3000 0 0 1500 0 1500 -3000 0 -3000 0 0 -1500z m3840 1051 c599 -347 603 -349 546 -387 l-26 -16 0 -549 c0 -581 -1 -591 -46 -631 -18 -16 -1406 -820 -1451 -841 -12 -5 -34 -6 -50 -2 -26 7 -27 8 -7 15 17 7 424 241 1293 744 98 57 183 113 195 129 21 28 21 38 23 575 l3 547 -518 330 c-558 356 -560 357 -632 320 -96 -50 -1428 -820 -1446 -836 -17 -16 -23 -17 -38 -6 -10 7 -17 22 -14 32 5 28 1531 905 1573 904 21 0 203 -100 595 -328z m-129 -114 c30 -18 148 -93 262 -166 202 -130 209 -135 205 -163 -3 -19 0 -32 9 -35 11 -4 13 -95 13 -499 0 -315 -4 -494 -10 -494 -5 0 -24 9 -42 20 -48 29 -71 25 -163 -25 -138 -75 -146 -87 -83 -125 30 -18 30 -18 9 -29 -12 -7 -21 -8 -21 -3 0 17 -78 45 -108 39 -38 -8 -202 -105 -209 -124 -4 -10 6 -26 28 -45 35 -31 24 -29 -23 4 -16 11 -28 28 -28 38 0 11 -17 31 -37 47 -21 15 -53 40 -71 55 -21 18 -44 28 -65 28 -41 0 -171 -78 -175 -106 -2 -14 26 -41 109 -104 62 -47 117 -88 123 -92 8 -6 7 -11 -3 -17 -9 -6 -29 -1 -60 15 -57 31 -77 27 -189 -38 -114 -66 -120 -77 -61 -112 22 -13 28 -21 20 -29 -8 -8 -22 -5 -50 11 -21 12 -51 22 -66 22 -28 0 -194 -90 -217 -117 -11 -13 -7 -20 22 -44 45 -38 32 -47 -19 -13 l-41 27 0 457 0 458 -30 12 c-26 11 -33 10 -50 -5 -37 -34 -97 16 -88 74 4 29 -1 33 -119 107 -115 72 -122 78 -108 94 11 12 39 20 82 25 l66 7 63 -68 c42 -45 60 -72 54 -78 -13 -13 -13 -76 -1 -76 5 0 11 5 13 11 2 7 12 7 31 0 48 -18 57 -14 57 24 0 19 4 35 10 35 5 0 26 24 46 54 l36 54 65 4 c43 2 68 -1 75 -9 12 -15 32 -18 23 -4 -3 5 7 11 22 13 35 4 42 32 12 49 -13 6 -68 12 -130 13 l-108 1 -3 64 c-3 55 -6 67 -29 83 -37 28 -102 35 -134 14 -23 -15 -25 -22 -25 -92 l0 -76 -31 26 c-17 14 -34 26 -38 26 -3 0 -44 -5 -90 -10 -90 -12 -141 -32 -141 -55 0 -12 -8 -10 -35 7 -37 25 -51 46 -37 60 5 5 89 55 188 112 l179 104 3 44 3 45 -41 6 c-24 3 -86 32 -158 74 -96 56 -118 73 -120 94 -2 14 3 31 10 36 38 31 338 197 369 204 50 12 85 -1 212 -73 142 -82 154 -104 79 -150 -21 -12 -56 -39 -80 -60 -23 -21 -56 -41 -72 -45 -26 -5 -30 -10 -30 -40 0 -19 3 -32 8 -30 4 2 188 109 409 236 388 223 435 249 459 250 5 1 35 -14 65 -32z m-966 -802 c-13 -104 -23 -116 -24 -29 -1 81 3 99 21 88 6 -4 7 -29 3 -59z m-385 -69 c0 -11 -19 -15 -25 -6 -3 5 1 10 9 10 9 0 16 -2 16 -4z m357 -63 c-4 -3 -7 0 -7 7 0 7 3 10 7 7 3 -4 3 -10 0 -14z"></path>      <path d="M3663 1788 c-85 -50 -103 -65 -103 -84 0 -13 3 -24 8 -23 4 0 54 28 112 62 77 46 106 68 108 85 5 32 -11 27 -125 -40z"></path>  <path d="M3663 1697 l-103 -61 0 -188 c0 -122 4 -188 10 -188 6 0 58 27 115 61 l105 61 0 189 c0 145 -3 189 -12 188 -7 0 -59 -28 -115 -62z m87 -12 c0 -2 -10 -9 -22 -15 -22 -11 -22 -10 -4 4 21 17 26 19 26 11z m-50 -30 c0 -2 -13 -11 -30 -20 -38 -19 -40 -11 -2 9 31 17 32 18 32 11z m40 -20 c0 -2 -10 -9 -22 -15 -22 -11 -22 -10 -4 4 21 17 26 19 26 11z m-110 -20 c0 -2 -10 -9 -22 -15 -22 -11 -22 -10 -4 4 21 17 26 19 26 11z m60 -10 c0 -2 -10 -9 -22 -15 -22 -11 -22 -10 -4 4 21 17 26 19 26 11z m60 -10 c0 -2 -13 -11 -30 -20 -38 -19 -40 -11 -2 9 31 17 32 18 32 11z m-135 -35 c-3 -5 -12 -10 -18 -10 -7 0 -6 4 3 10 19 12 23 12 15 0z m65 -5 c0 -2 -10 -9 -22 -15 -22 -11 -22 -10 -4 4 21 17 26 19 26 11z m-70 -39 c0 -3 -5 -8 -12 -12 -7 -4 -8 -3 -4 4 7 12 16 16 16 8z m120 -21 c0 -2 -10 -9 -22 -15 -22 -11 -22 -10 -4 4 21 17 26 19 26 11z m-70 -40 c0 -2 -10 -9 -22 -15 -22 -11 -22 -10 -4 4 21 17 26 19 26 11z m-50 -29 c0 -3 -5 -8 -12 -12 -7 -4 -8 -3 -4 4 7 12 16 16 16 8z"></path>  <path d="M3318 1612 c-35 -22 -58 -44 -58 -55 0 -17 2 -17 38 3 61 34 84 56 81 73 -3 14 -14 10 -61 -21z"></path>  <path d="M3148 1529 l-88 -51 0 -455 c0 -250 3 -453 8 -451 4 2 54 30 111 62 72 41 115 60 139 60 l34 0 -28 20 c-16 12 -47 37 -71 56 -23 19 -53 43 -67 53 -24 16 -25 22 -20 75 4 31 7 73 9 92 1 19 6 70 9 113 6 63 4 77 -6 72 -7 -3 -5 0 5 8 11 9 17 28 17 52 0 31 -3 36 -17 31 -12 -4 -10 0 5 10 27 20 30 49 5 40 -17 -6 -17 -5 0 8 20 15 24 52 5 40 -8 -5 -7 -1 2 10 14 18 17 35 23 136 1 25 6 51 10 58 12 17 11 17 -85 -39z m32 -174 c0 -2 -13 -11 -30 -20 -38 -19 -40 -11 -2 9 31 17 32 18 32 11z m-10 -50 c0 -2 -10 -9 -22 -15 -22 -11 -22 -10 -4 4 21 17 26 19 26 11z m-10 -50 c0 -2 -10 -9 -22 -15 -22 -11 -22 -10 -4 4 21 17 26 19 26 11z m0 -90 c0 -2 -13 -11 -30 -20 -38 -19 -40 -11 -2 9 31 17 32 18 32 11z m68 -402 c5 -32 -43 -79 -63 -63 -20 17 -19 33 6 64 25 31 53 31 57 -1z"></path>  <path d="M3309 1542 l-54 -38 -13 -138 c-7 -76 -11 -140 -8 -143 8 -8 116 66 116 80 0 26 21 232 25 255 7 30 -3 28 -66 -16z m21 -126 c0 -3 -5 -8 -12 -12 -7 -4 -8 -3 -4 4 7 12 16 16 16 8z m-30 -20 c0 -3 -5 -8 -12 -12 -7 -4 -8 -3 -4 4 7 12 16 16 16 8z"></path>        <path d="M3670 1277 c-76 -46 -106 -69 -108 -85 -2 -12 1 -22 6 -22 6 0 58 28 116 61 88 51 106 66 106 85 0 13 -3 24 -7 24 -5 -1 -55 -29 -113 -63z"></path>    <path d="M3278 1219 c-32 -22 -58 -46 -58 -54 0 -21 4 -20 65 20 37 23 55 41 55 55 0 11 -1 20 -2 19 -2 0 -29 -18 -60 -40z"></path>    <path d="M3705 1208 c-124 -72 -145 -87 -145 -108 0 -11 3 -20 7 -20 4 0 56 28 115 62 89 50 108 66 108 85 0 13 -3 23 -7 23 -5 -1 -39 -19 -78 -42z"></path>  <path d="M3273 1153 c-32 -22 -53 -43 -53 -55 0 -17 4 -16 43 8 56 35 77 54 77 71 0 19 -9 16 -67 -24z"></path>  <path d="M3663 1075 c-25 -17 -47 -74 -37 -98 22 -59 110 11 102 81 -4 32 -33 40 -65 17z m53 -19 c7 -17 -20 -72 -38 -79 -38 -13 -50 26 -22 68 18 27 51 33 60 11z"></path>  <path d="M3259 1063 c-12 -16 -12 -17 2 -6 12 10 18 10 28 0 10 -9 11 -8 6 6 -4 9 -11 17 -15 17 -4 0 -14 -8 -21 -17z"></path>  <path d="M3250 986 c7 -7 13 -7 20 0 6 6 3 10 -10 10 -13 0 -16 -4 -10 -10z"></path>        </g> <g id="layer111" fill="#8ad0e1" stroke="none">  <path d="M0 1500 l0 -1500 3000 0 3000 0 0 1500 0 1500 -3000 0 -3000 0 0 -1500z m3840 1051 c599 -347 603 -349 546 -387 l-26 -16 0 -549 c0 -581 -1 -591 -46 -631 -18 -16 -1406 -820 -1451 -841 -12 -5 -34 -6 -50 -2 -26 7 -27 8 -7 15 17 7 424 241 1293 744 98 57 183 113 195 129 21 28 21 38 23 575 l3 547 -518 330 c-558 356 -560 357 -632 320 -96 -50 -1428 -820 -1446 -836 -17 -16 -23 -17 -38 -6 -10 7 -17 22 -14 32 5 28 1531 905 1573 904 21 0 203 -100 595 -328z m-129 -114 c30 -18 148 -93 262 -166 202 -130 209 -135 205 -163 -3 -19 0 -32 9 -35 11 -4 13 -95 13 -499 0 -315 -4 -494 -10 -494 -5 0 -24 9 -42 20 -18 11 -44 20 -57 20 -25 0 -169 -74 -212 -109 -23 -19 -23 -19 -5 -40 10 -11 28 -23 39 -27 20 -6 20 -7 2 -20 -15 -11 -22 -10 -47 8 -49 34 -92 27 -196 -32 -51 -29 -95 -56 -97 -60 -9 -15 5 -36 37 -55 18 -10 27 -20 21 -22 -21 -7 -84 39 -89 67 -8 36 -130 130 -170 130 -42 -1 -169 -81 -169 -107 0 -15 34 -47 115 -109 63 -48 117 -89 120 -91 2 -2 -2 -8 -9 -13 -9 -5 -31 1 -60 16 -57 31 -77 27 -189 -38 -114 -66 -120 -77 -61 -112 22 -13 28 -21 20 -29 -8 -8 -22 -5 -50 11 -21 12 -51 22 -66 22 -28 0 -194 -90 -217 -117 -11 -13 -7 -20 22 -44 45 -38 32 -47 -19 -13 l-41 27 0 457 0 457 -26 12 c-21 9 -31 8 -54 -6 -27 -15 -30 -15 -54 0 -27 18 -41 55 -33 86 4 15 -19 34 -119 97 -116 72 -123 78 -109 94 11 12 39 20 82 25 l66 7 63 -68 c42 -45 60 -72 54 -78 -6 -6 -10 -26 -10 -45 1 -32 2 -34 14 -19 7 10 17 14 22 9 5 -5 24 -12 42 -16 31 -6 32 -6 32 29 0 20 4 36 10 36 5 0 26 24 46 54 l36 54 65 4 c43 2 68 -1 75 -9 12 -15 32 -18 23 -4 -3 5 7 11 22 13 35 4 42 32 12 49 -13 6 -68 12 -130 13 l-108 1 -3 64 c-3 55 -6 67 -29 83 -37 28 -102 35 -134 14 -23 -15 -25 -22 -25 -92 l0 -76 -31 26 c-17 14 -34 26 -38 26 -3 0 -44 -5 -90 -10 -90 -12 -141 -32 -141 -55 0 -12 -8 -10 -35 7 -37 25 -51 46 -37 60 5 5 89 55 188 112 l179 104 3 44 3 45 -41 6 c-24 3 -86 32 -158 74 -96 56 -118 73 -120 94 -2 14 3 31 10 36 38 31 338 197 369 204 50 12 85 -1 212 -73 142 -82 154 -104 79 -150 -21 -12 -56 -39 -80 -60 -23 -21 -56 -41 -72 -45 -26 -5 -30 -10 -30 -40 0 -19 3 -32 8 -30 4 2 188 109 409 236 388 223 435 249 459 250 5 1 35 -14 65 -32z m-965 -812 c-6 -64 -22 -123 -37 -139 -4 -5 -3 9 2 30 4 22 9 69 9 105 0 67 5 83 23 72 6 -3 7 -31 3 -68z m-386 -59 c0 -11 -19 -15 -25 -6 -3 5 1 10 9 10 9 0 16 -2 16 -4z"></path>            <path d="M3148 1529 l-88 -51 0 -455 c0 -250 3 -453 8 -451 4 2 54 30 111 62 70 40 115 60 138 60 18 0 30 3 25 6 -4 4 -36 28 -71 56 -35 27 -75 58 -88 70 l-26 20 12 120 c7 65 15 141 17 168 5 38 3 47 -8 40 -10 -6 -11 -5 -1 7 6 8 14 32 19 53 6 36 5 39 -12 33 -18 -7 -18 -6 -1 7 20 15 24 51 5 41 -7 -4 -5 0 5 8 20 16 24 52 5 41 -10 -6 -10 -5 -1 7 7 8 15 53 19 100 4 46 11 90 17 97 15 19 9 16 -85 -39z m32 -174 c0 -2 -13 -11 -30 -20 -38 -19 -40 -11 -2 9 31 17 32 18 32 11z m-10 -50 c0 -2 -10 -9 -22 -15 -22 -11 -22 -10 -4 4 21 17 26 19 26 11z m-10 -50 c0 -2 -10 -9 -22 -15 -22 -11 -22 -10 -4 4 21 17 26 19 26 11z m0 -90 c0 -2 -13 -11 -30 -20 -38 -19 -40 -11 -2 9 31 17 32 18 32 11z m68 -402 c5 -32 -43 -79 -63 -63 -20 17 -19 33 6 64 25 31 53 31 57 -1z"></path>      <path d="M2900 1347 c-77 -46 -106 -68 -108 -85 -2 -12 0 -22 4 -22 5 0 57 28 116 62 89 50 108 66 108 85 0 13 -3 23 -7 22 -5 0 -55 -28 -113 -62z"></path>      <path d="M2900 1256 l-105 -62 -3 -192 c-1 -106 1 -192 5 -191 5 0 55 28 113 62 l105 62 3 193 c1 105 -1 192 -5 191 -5 0 -55 -29 -113 -63z m90 -11 c0 -2 -13 -11 -30 -20 -38 -19 -40 -11 -2 9 31 17 32 18 32 11z m-70 -40 c0 -2 -13 -11 -30 -20 -38 -19 -40 -11 -2 9 31 17 32 18 32 11z m60 -10 c0 -2 -13 -11 -30 -20 -38 -19 -40 -11 -2 9 31 17 32 18 32 11z m-130 -30 c0 -2 -10 -9 -22 -15 -22 -11 -22 -10 -4 4 21 17 26 19 26 11z m60 -10 c0 -2 -10 -9 -22 -15 -22 -11 -22 -10 -4 4 21 17 26 19 26 11z m55 -14 c-16 -14 -105 -63 -105 -58 0 5 101 66 110 67 2 0 0 -4 -5 -9z m-130 -31 c-3 -5 -12 -10 -18 -10 -7 0 -6 4 3 10 19 12 23 12 15 0z m10 -40 c-3 -5 -12 -10 -18 -10 -7 0 -6 4 3 10 19 12 23 12 15 0z m105 -25 c0 -2 -10 -9 -22 -15 -22 -11 -22 -10 -4 4 21 17 26 19 26 11z m-50 -30 c0 -2 -13 -11 -30 -20 -38 -19 -40 -11 -2 9 31 17 32 18 32 11z m40 -19 c0 -3 -5 -8 -12 -12 -7 -4 -8 -3 -4 4 7 12 16 16 16 8z"></path>              <path d="M2903 833 c-95 -55 -113 -69 -113 -90 0 -14 3 -23 8 -21 43 19 215 124 219 134 2 7 3 19 1 27 -2 11 -33 -2 -115 -50z"></path>  <path d="M2903 744 c-95 -56 -113 -70 -113 -90 0 -29 -7 -31 138 53 76 45 92 58 92 79 0 13 -1 24 -2 23 -2 0 -54 -29 -115 -65z"></path>  <path d="M2891 622 c-50 -50 -50 -112 -1 -112 37 0 83 87 63 118 -16 26 -32 25 -62 -6z m48 -6 c20 -24 -16 -86 -51 -86 -26 0 -24 48 4 77 25 27 31 28 47 9z"></path>  </g> <g id="layer112" fill="#c2bfbc" stroke="none">  <path d="M3165 2783 c-233 -129 -1425 -820 -1439 -834 -16 -15 -18 -23 -9 -41 7 -15 161 -119 424 -287 228 -146 424 -271 435 -278 20 -13 22 -12 26 16 4 29 -1 33 -119 107 -115 72 -122 78 -108 94 11 12 39 20 82 25 l66 7 63 -68 c42 -45 60 -72 54 -78 -6 -6 -10 -26 -10 -46 1 -31 2 -33 14 -18 7 10 17 14 22 9 5 -5 24 -12 42 -16 31 -6 32 -6 32 29 0 20 4 36 10 36 5 0 26 24 46 54 l36 54 65 4 c43 2 68 -1 75 -9 12 -15 32 -18 23 -4 -3 5 7 11 22 13 35 4 42 32 12 49 -13 6 -68 12 -130 13 l-108 1 -3 64 c-3 55 -6 67 -29 83 -37 28 -102 35 -134 14 -23 -15 -25 -22 -25 -92 l0 -76 -31 26 c-17 14 -34 26 -38 26 -3 0 -44 -5 -90 -10 -90 -12 -141 -32 -141 -55 0 -12 -8 -10 -35 7 -37 25 -51 46 -37 60 5 5 89 55 188 112 l179 104 3 44 3 45 -41 6 c-24 3 -86 32 -158 74 -96 56 -118 73 -120 94 -2 14 3 31 10 36 38 31 338 197 369 204 50 12 85 -1 212 -73 142 -82 154 -104 79 -150 -21 -12 -56 -39 -80 -60 -23 -21 -56 -41 -72 -45 -26 -5 -30 -10 -30 -40 0 -19 3 -32 8 -30 4 2 189 109 410 236 222 128 416 237 432 243 36 12 22 20 318 -170 237 -151 244 -156 240 -184 -3 -19 0 -32 9 -35 11 -4 13 -95 13 -499 0 -315 -4 -494 -10 -494 -5 0 -24 9 -42 20 -18 11 -44 20 -57 20 -25 0 -169 -74 -212 -109 -23 -19 -23 -19 -5 -40 10 -11 28 -23 39 -27 20 -6 20 -7 2 -20 -15 -11 -22 -10 -47 8 -49 34 -92 27 -196 -32 -51 -29 -95 -56 -97 -60 -9 -15 5 -36 37 -55 18 -10 27 -20 21 -22 -21 -7 -84 39 -89 67 -8 36 -130 130 -170 130 -42 -1 -169 -81 -169 -107 0 -15 34 -47 115 -109 63 -48 117 -89 120 -91 2 -2 -2 -8 -10 -13 -10 -6 -26 -3 -48 10 -55 33 -96 26 -195 -31 -49 -28 -91 -58 -94 -67 -4 -9 6 -25 28 -43 28 -22 31 -29 18 -34 -9 -3 -32 3 -50 14 -51 31 -82 26 -180 -30 -118 -68 -122 -74 -79 -110 45 -38 32 -47 -19 -13 l-41 27 0 457 0 457 -26 11 c-19 9 -31 9 -46 1 -20 -11 -19 -13 21 -38 l41 -26 0 -531 c0 -544 1 -554 38 -554 12 0 338 186 1301 744 98 57 183 113 195 129 21 28 21 38 23 575 l3 547 -518 330 c-461 295 -522 330 -562 333 -28 1 -57 -4 -75 -15z m-419 -1158 c-6 -64 -22 -123 -37 -139 -4 -5 -3 9 2 30 4 22 9 69 9 105 0 67 5 83 23 72 6 -3 7 -31 3 -68z m-386 -59 c0 -11 -19 -15 -25 -6 -3 5 1 10 9 10 9 0 16 -2 16 -4z"></path>  <path d="M3960 1956 c-76 -45 -106 -68 -108 -84 -2 -12 2 -22 8 -22 6 0 58 27 115 61 87 51 105 65 105 85 0 13 -3 24 -7 23 -5 -1 -55 -29 -113 -63z"></path>  <path d="M3965 1866 l-110 -64 -3 -191 c-1 -105 1 -191 4 -191 4 0 56 28 116 63 l108 62 0 193 c0 105 -1 192 -3 192 -1 0 -52 -29 -112 -64z m94 -10 c-2 -2 -15 -9 -29 -15 -24 -11 -24 -11 -6 3 16 13 49 24 35 12z m-59 -31 c0 -2 -13 -11 -30 -20 -38 -19 -40 -11 -2 9 31 17 32 18 32 11z m60 -10 c0 -2 -10 -9 -22 -15 -22 -11 -22 -10 -4 4 21 17 26 19 26 11z m-130 -30 c0 -2 -10 -9 -22 -15 -22 -11 -22 -10 -4 4 21 17 26 19 26 11z m60 -10 c0 -2 -10 -9 -22 -15 -22 -11 -22 -10 -4 4 21 17 26 19 26 11z m60 -10 c0 -2 -10 -9 -22 -15 -22 -11 -22 -10 -4 4 21 17 26 19 26 11z m-110 -20 c0 -2 -13 -11 -30 -20 -38 -19 -40 -11 -2 9 31 17 32 18 32 11z m60 -10 c0 -2 -13 -11 -30 -20 -38 -19 -40 -11 -2 9 31 17 32 18 32 11z m-84 -50 c-11 -8 -25 -15 -30 -15 -6 1 0 7 14 15 32 19 40 18 16 0z m134 -10 c0 -2 -13 -11 -30 -20 -38 -19 -40 -11 -2 9 31 17 32 18 32 11z m-70 -40 c0 -2 -10 -9 -22 -15 -22 -11 -22 -10 -4 4 21 17 26 19 26 11z m-75 -45 c-3 -5 -12 -10 -18 -10 -7 0 -6 4 3 10 19 12 23 12 15 0z"></path>    <path d="M3673 1699 l-103 -61 0 -190 0 -190 43 25 c23 13 72 42 110 63 l67 38 0 188 c0 103 -3 188 -7 188 -5 -1 -54 -28 -110 -61z m77 -14 c0 -2 -10 -9 -22 -15 -22 -11 -22 -10 -4 4 21 17 26 19 26 11z m-50 -30 c0 -2 -13 -11 -30 -20 -38 -19 -40 -11 -2 9 31 17 32 18 32 11z m40 -20 c0 -2 -10 -9 -22 -15 -22 -11 -22 -10 -4 4 21 17 26 19 26 11z m-110 -20 c0 -2 -10 -9 -22 -15 -22 -11 -22 -10 -4 4 21 17 26 19 26 11z m60 -10 c0 -2 -10 -9 -22 -15 -22 -11 -22 -10 -4 4 21 17 26 19 26 11z m60 -10 c0 -2 -13 -11 -30 -20 -38 -19 -40 -11 -2 9 31 17 32 18 32 11z m-135 -35 c-3 -5 -12 -10 -18 -10 -7 0 -6 4 3 10 19 12 23 12 15 0z m65 -5 c0 -2 -10 -9 -22 -15 -22 -11 -22 -10 -4 4 21 17 26 19 26 11z m-70 -39 c0 -3 -5 -8 -12 -12 -7 -4 -8 -3 -4 4 7 12 16 16 16 8z m120 -21 c0 -2 -10 -9 -22 -15 -22 -11 -22 -10 -4 4 21 17 26 19 26 11z m-70 -40 c0 -2 -10 -9 -22 -15 -22 -11 -22 -10 -4 4 21 17 26 19 26 11z m-50 -29 c0 -3 -5 -8 -12 -12 -7 -4 -8 -3 -4 4 7 12 16 16 16 8z"></path>    <path d="M3317 1545 c-26 -18 -50 -34 -52 -37 -5 -4 -35 -281 -31 -285 1 -1 26 14 57 32 l55 34 13 142 c7 77 11 142 9 144 -2 1 -25 -12 -51 -30z m13 -129 c0 -3 -5 -8 -12 -12 -7 -4 -8 -3 -4 4 7 12 16 16 16 8z m-30 -20 c0 -3 -5 -8 -12 -12 -7 -4 -8 -3 -4 4 7 12 16 16 16 8z"></path>    <path d="M3959 1439 c-93 -54 -105 -64 -101 -85 l4 -23 52 30 c28 16 77 44 108 62 44 24 58 38 58 55 0 12 -3 22 -7 22 -5 0 -56 -28 -114 -61z"></path>  <path d="M3143 1394 l-63 -35 0 -190 c0 -105 3 -189 8 -187 82 35 91 43 92 78 1 19 3 55 6 78 4 35 2 42 -8 36 -10 -6 -10 -5 -1 7 6 8 14 32 19 53 6 36 5 39 -12 33 -18 -7 -18 -6 -1 7 20 15 24 51 5 41 -7 -4 -5 0 5 8 20 16 24 52 5 41 -10 -6 -9 -3 0 9 8 9 12 25 10 36 -3 19 -6 19 -65 -15z m37 -39 c0 -2 -13 -11 -30 -20 -38 -19 -40 -11 -2 9 31 17 32 18 32 11z m-10 -50 c0 -2 -10 -9 -22 -15 -22 -11 -22 -10 -4 4 21 17 26 19 26 11z m-10 -50 c0 -2 -10 -9 -22 -15 -22 -11 -22 -10 -4 4 21 17 26 19 26 11z m0 -90 c0 -2 -13 -11 -30 -20 -38 -19 -40 -11 -2 9 31 17 32 18 32 11z"></path>  <path d="M3958 1351 c-86 -50 -97 -59 -98 -84 l0 -28 43 26 c23 14 72 42 109 63 53 29 68 42 68 60 0 12 -6 22 -12 21 -7 -1 -57 -27 -110 -58z"></path>  <path d="M2893 1339 c-78 -45 -103 -65 -103 -81 0 -25 5 -24 125 47 68 40 95 62 95 76 0 10 -3 19 -7 19 -5 0 -54 -28 -110 -61z"></path>    <path d="M2891 1248 l-104 -61 5 -179 c3 -98 7 -181 11 -184 3 -3 52 21 109 54 l103 60 3 186 c2 145 0 186 -10 186 -7 -1 -60 -28 -117 -62z m99 -3 c0 -2 -13 -11 -30 -20 -38 -19 -40 -11 -2 9 31 17 32 18 32 11z m-70 -40 c0 -2 -13 -11 -30 -20 -38 -19 -40 -11 -2 9 31 17 32 18 32 11z m60 -10 c0 -2 -13 -11 -30 -20 -38 -19 -40 -11 -2 9 31 17 32 18 32 11z m-130 -30 c0 -2 -10 -9 -22 -15 -22 -11 -22 -10 -4 4 21 17 26 19 26 11z m60 -10 c0 -2 -10 -9 -22 -15 -22 -11 -22 -10 -4 4 21 17 26 19 26 11z m55 -14 c-16 -14 -105 -63 -105 -58 0 5 101 66 110 67 2 0 0 -4 -5 -9z m-130 -31 c-3 -5 -12 -10 -18 -10 -7 0 -6 4 3 10 19 12 23 12 15 0z m10 -40 c-3 -5 -12 -10 -18 -10 -7 0 -6 4 3 10 19 12 23 12 15 0z m105 -25 c0 -2 -10 -9 -22 -15 -22 -11 -22 -10 -4 4 21 17 26 19 26 11z m-50 -30 c0 -2 -13 -11 -30 -20 -38 -19 -40 -11 -2 9 31 17 32 18 32 11z m40 -19 c0 -3 -5 -8 -12 -12 -7 -4 -8 -3 -4 4 7 12 16 16 16 8z"></path>  <path d="M3957 1240 c-33 -26 -54 -85 -37 -105 19 -23 46 -18 74 16 30 35 36 93 10 103 -21 8 -18 9 -47 -14z m44 -51 c-12 -32 -37 -53 -56 -45 -23 8 -18 44 11 73 22 22 27 24 40 11 11 -11 12 -21 5 -39z"></path>        <path d="M3656 1059 c-34 -40 -33 -92 0 -97 32 -5 76 52 72 92 -4 44 -37 47 -72 5z m60 -3 c7 -17 -20 -72 -38 -79 -38 -13 -50 26 -22 68 18 27 51 33 60 11z"></path>  <path d="M3245 990 c3 -5 8 -10 11 -10 3 0 2 5 -1 10 -3 6 -8 10 -11 10 -3 0 -2 -4 1 -10z"></path>  <path d="M3118 957 c-26 -15 -38 -29 -38 -44 0 -28 1 -28 42 -4 17 11 35 18 40 15 4 -3 8 9 8 25 0 36 -3 37 -52 8z"></path>  <path d="M2905 832 c-73 -42 -101 -64 -103 -80 -2 -12 -1 -22 3 -22 3 0 53 27 110 61 75 44 105 67 105 80 0 10 -3 19 -7 19 -5 0 -53 -26 -108 -58z"></path>    <path d="M3165 779 c-35 -42 -32 -93 6 -97 30 -3 56 22 68 66 8 27 6 33 -15 46 -30 21 -28 21 -59 -15z m63 -16 c5 -32 -43 -79 -63 -63 -20 17 -19 33 6 64 25 31 53 31 57 -1z"></path>  <path d="M2905 742 c-73 -42 -101 -64 -103 -80 -2 -12 -1 -22 1 -22 3 0 53 27 111 61 77 44 106 66 106 80 0 10 -3 19 -7 19 -5 0 -53 -26 -108 -58z"></path>  <path d="M2887 622 c-40 -44 -41 -112 -1 -112 36 0 84 78 70 115 -7 20 -49 19 -69 -3z m52 -6 c20 -24 -16 -86 -51 -86 -26 0 -24 48 4 77 25 27 31 28 47 9z"></path>  </g> <g id="layer113" fill="#d6c9b8" stroke="none">  <path d="M2990 2677 c-1022 -586 -1269 -730 -1273 -747 -3 -11 0 -26 7 -34 6 -8 193 -131 416 -273 223 -143 417 -267 433 -277 l27 -18 0 30 c0 28 -10 36 -141 118 -109 69 -136 90 -122 95 28 12 33 10 26 -8 -6 -16 -4 -16 15 1 15 13 42 21 84 24 l61 4 64 -67 c52 -55 61 -69 53 -85 -6 -10 -10 -31 -10 -47 1 -25 2 -26 14 -11 7 10 17 14 22 9 5 -5 24 -12 42 -16 31 -6 32 -6 32 29 0 20 4 36 9 36 6 0 26 25 46 55 21 30 42 55 48 56 52 4 118 -1 137 -11 12 -7 20 -7 16 -2 -4 6 5 12 21 14 38 4 43 35 7 48 -14 6 -73 11 -130 11 l-103 1 -3 66 c-3 66 -3 67 -43 89 -47 27 -92 29 -123 7 -19 -13 -22 -24 -22 -91 l0 -76 -25 23 c-23 22 -30 23 -119 17 -100 -6 -162 -27 -152 -53 3 -8 2 -14 -2 -14 -16 0 -82 51 -82 64 0 20 23 35 205 140 94 54 172 100 174 101 2 2 0 20 -3 39 -5 28 -13 37 -34 42 -43 9 -70 22 -179 86 -104 62 -118 77 -108 109 3 10 84 64 183 121 172 100 179 103 237 103 56 -1 68 -5 177 -70 65 -38 120 -77 124 -87 9 -31 -5 -54 -49 -78 -23 -13 -58 -40 -79 -61 -20 -20 -50 -40 -67 -44 -24 -5 -31 -12 -31 -31 0 -13 3 -24 7 -24 3 0 195 108 425 241 335 193 424 240 447 237 37 -5 529 -318 537 -341 3 -10 1 -24 -6 -32 -9 -10 -7 -15 9 -20 13 -4 37 5 71 26 28 17 50 32 48 34 -21 16 -992 634 -1018 647 -19 10 -46 18 -60 18 -14 0 -119 -53 -240 -123z m-244 -1052 c-6 -64 -22 -123 -37 -139 -4 -5 -3 9 2 30 4 22 9 69 9 105 0 67 5 83 23 72 6 -3 7 -31 3 -68z"></path>    <path d="M3963 1862 l-103 -57 0 -187 c0 -104 3 -188 8 -188 4 0 52 26 107 58 l100 58 3 187 c1 103 -1 187 -5 187 -5 0 -54 -26 -110 -58z m8 -58 c-51 -30 -95 -53 -98 -51 -5 6 168 106 182 107 6 0 -32 -25 -84 -56z m74 0 c-28 -21 -161 -94 -171 -94 -5 0 34 25 86 55 95 55 122 67 85 39z m-74 -89 c-52 -31 -96 -54 -98 -51 -5 5 168 106 182 106 6 0 -32 -25 -84 -55z m89 10 c0 -2 -13 -11 -30 -20 -38 -19 -40 -11 -2 9 31 17 32 18 32 11z m-70 -39 c0 -6 -106 -66 -116 -66 -5 0 18 16 51 35 64 37 65 37 65 31z m69 -9 c-31 -23 -197 -113 -186 -101 13 14 181 111 186 108 2 -2 2 -5 0 -7z m-24 -56 c-16 -14 -105 -63 -105 -58 0 5 101 66 110 67 2 0 0 -4 -5 -9z m10 -39 c-16 -15 -125 -74 -125 -68 0 5 120 76 130 76 2 0 0 -4 -5 -8z m-125 -27 c0 -2 -10 -9 -22 -15 -22 -11 -22 -10 -4 4 21 17 26 19 26 11z m-15 -55 c-3 -5 -12 -10 -18 -10 -7 0 -6 4 3 10 19 12 23 12 15 0z"></path>  <path d="M3675 1791 c-70 -41 -101 -65 -103 -80 -2 -11 0 -21 3 -21 4 0 53 27 111 61 74 44 104 66 104 80 0 10 -3 19 -7 19 -5 -1 -53 -27 -108 -59z"></path>  <path d="M3673 1699 l-103 -61 0 -190 0 -190 43 25 c23 13 72 42 110 63 l67 38 0 188 c0 103 -3 188 -7 188 -5 -1 -54 -28 -110 -61z m97 -3 c0 -7 -181 -109 -185 -104 -3 3 173 107 183 108 1 0 2 -2 2 -4z m-1 -49 c-4 -3 -163 -94 -184 -105 -5 -3 -6 -1 -2 4 13 14 182 112 186 108 2 -2 2 -5 0 -7z m1 -41 c0 -5 -178 -106 -187 -106 -9 0 168 108 180 109 4 1 7 -1 7 -3z m-30 -61 c0 -2 -13 -11 -30 -20 -38 -19 -40 -11 -2 9 31 17 32 18 32 11z m15 -38 c-44 -30 -167 -99 -170 -95 -5 5 166 107 180 107 5 1 1 -5 -10 -12z m-85 -2 c0 -2 -10 -9 -22 -15 -22 -11 -22 -10 -4 4 21 17 26 19 26 11z m-55 -35 c-3 -5 -12 -10 -18 -10 -7 0 -6 4 3 10 19 12 23 12 15 0z m155 6 c0 -3 -5 -8 -12 -12 -7 -4 -8 -3 -4 4 7 12 16 16 16 8z m-30 -21 c0 -2 -13 -11 -30 -20 -38 -19 -40 -11 -2 9 31 17 32 18 32 11z m30 -29 c0 -2 -7 -7 -16 -10 -8 -3 -12 -2 -9 4 6 10 25 14 25 6z m-100 -11 c0 -2 -13 -11 -30 -20 -38 -19 -40 -11 -2 9 31 17 32 18 32 11z m60 -10 c0 -2 -13 -11 -30 -20 -38 -19 -40 -11 -2 9 31 17 32 18 32 11z m-70 -40 c0 -2 -13 -11 -30 -20 -38 -19 -40 -11 -2 9 31 17 32 18 32 11z"></path>  <path d="M3321 1611 c-41 -27 -68 -57 -59 -66 6 -6 112 69 116 83 6 19 -9 14 -57 -17z"></path>  <path d="M3317 1545 c-26 -18 -50 -34 -52 -37 -5 -4 -35 -281 -31 -285 1 -1 26 14 57 32 l55 34 13 142 c7 77 11 142 9 144 -2 1 -25 -12 -51 -30z m3 -39 c0 -3 -5 -8 -12 -12 -7 -4 -8 -3 -4 4 7 12 16 16 16 8z m25 -84 c-15 -13 -91 -57 -83 -48 13 15 73 55 83 56 5 0 5 -3 0 -8z m-75 -76 c0 -3 -5 -8 -12 -12 -7 -4 -8 -3 -4 4 7 12 16 16 16 8z m50 0 c0 -3 -5 -8 -12 -12 -7 -4 -8 -3 -4 4 7 12 16 16 16 8z m-30 -20 c0 -3 -5 -8 -12 -12 -7 -4 -8 -3 -4 4 7 12 16 16 16 8z"></path>      <path d="M3143 1394 l-63 -35 0 -190 c0 -104 3 -189 6 -189 3 0 25 12 50 26 39 23 44 30 43 58 -1 17 2 40 6 50 7 16 5 18 -11 13 -17 -6 -17 -6 -2 6 13 11 25 87 13 87 -2 0 -20 -9 -39 -21 -20 -12 -36 -19 -36 -16 0 3 20 17 45 31 25 15 45 33 45 41 0 20 -4 19 -51 -11 -23 -14 -43 -23 -46 -21 -2 3 18 17 46 33 32 17 51 34 51 45 0 16 -6 15 -50 -11 -27 -16 -50 -26 -50 -22 0 4 25 20 55 37 35 18 55 36 55 47 0 15 -7 13 -51 -13 -28 -16 -53 -28 -56 -26 -2 3 21 19 52 36 44 25 55 36 55 56 0 14 -1 25 -2 25 -2 0 -31 -16 -65 -36z m37 -219 c0 -2 -19 -14 -42 -26 -46 -23 -46 -17 -1 12 29 18 43 23 43 14z m-44 -70 c-11 -8 -25 -15 -30 -15 -6 1 0 7 14 15 32 19 40 18 16 0z m24 -30 c0 -2 -13 -11 -30 -20 -38 -19 -40 -11 -2 9 31 17 32 18 32 11z"></path>      <path d="M3678 1277 c-87 -50 -108 -66 -108 -85 0 -22 0 -22 53 8 28 17 78 45 110 63 43 24 57 37 57 54 0 13 -1 23 -2 23 -2 0 -51 -28 -110 -63z"></path>  <path d="M2898 1252 l-98 -57 0 -187 c0 -104 3 -188 6 -188 3 0 53 28 111 62 l106 61 -7 60 c-3 33 -6 116 -6 183 0 68 -3 124 -7 123 -5 0 -52 -26 -105 -57z m62 -28 c-117 -67 -154 -86 -145 -76 14 15 168 102 180 102 6 0 -10 -12 -35 -26z m40 -18 c0 -6 -181 -108 -185 -104 -3 2 35 27 83 55 82 49 102 58 102 49z m-4 -45 c-3 -5 -30 -22 -59 -39 -28 -16 -70 -40 -92 -52 -22 -13 -35 -19 -30 -13 9 10 175 111 183 113 2 0 1 -4 -2 -9z m-11 -54 c-35 -24 -140 -81 -132 -71 12 12 130 82 142 83 5 1 1 -5 -10 -12z m11 -36 c-4 -5 -37 -26 -74 -47 -37 -20 -78 -44 -92 -52 -15 -10 -20 -11 -14 -3 10 10 171 108 182 110 2 1 1 -3 -2 -8z m-161 -51 c-3 -5 -12 -10 -18 -10 -7 0 -6 4 3 10 19 12 23 12 15 0z m164 6 c-11 -11 -182 -106 -185 -103 -4 4 167 105 180 106 5 1 7 -1 5 -3z m-17 -54 c-26 -20 -170 -99 -160 -87 8 9 170 104 178 104 3 0 -5 -7 -18 -17z"></path>  <path d="M2700 1285 c-8 -10 -8 -15 2 -21 7 -4 23 -14 36 -22 21 -13 22 -13 22 10 0 31 -42 55 -60 33z"></path>  <path d="M3278 1217 c-26 -18 -48 -38 -48 -44 0 -18 2 -17 59 18 28 18 51 38 51 45 0 20 -9 17 -62 -19z"></path>  <path d="M3678 1188 c-88 -51 -108 -67 -108 -85 l0 -23 53 30 c28 17 78 45 109 63 44 24 58 38 58 55 0 12 -1 22 -2 22 -2 0 -51 -28 -110 -62z"></path>  <path d="M3962 1244 c-7 -3 -17 -15 -23 -27 -11 -21 -10 -21 14 2 46 42 73 11 42 -49 -21 -41 -62 -42 -68 -2 -4 25 -4 24 -6 -6 -2 -57 53 -52 85 9 27 54 4 93 -44 73z"></path>  <path d="M3268 1147 c-26 -18 -48 -38 -48 -44 0 -18 2 -17 59 18 28 18 51 38 51 45 0 20 -9 17 -62 -19z"></path>  <path d="M4046 1105 c-114 -60 -176 -101 -176 -117 0 -9 14 -25 30 -33 31 -16 32 -15 150 51 66 36 120 70 120 74 0 9 -63 40 -82 40 -7 0 -26 -7 -42 -15z"></path>  <path d="M3656 1059 c-34 -40 -33 -92 0 -97 32 -5 76 52 72 92 -4 44 -37 47 -72 5z m60 -33 c-7 -28 -49 -61 -66 -51 -19 12 -10 56 16 82 23 23 27 24 41 10 10 -10 13 -24 9 -41z"></path>    <path d="M3275 916 c-47 -28 -70 -48 -70 -61 0 -12 41 -51 118 -111 l118 -93 87 51 c48 28 89 52 91 54 2 2 -13 13 -33 25 -23 14 -39 31 -42 48 -7 35 -134 131 -172 130 -15 0 -58 -19 -97 -43z"></path>  <path d="M3670 898 c-112 -67 -118 -77 -60 -111 l30 -18 125 73 c125 73 125 73 103 90 -43 33 -103 23 -198 -34z"></path>      <path d="M3165 779 c-35 -43 -32 -93 6 -97 33 -4 70 38 68 77 l-2 26 -4 -26 c-8 -53 -83 -92 -83 -44 0 26 29 75 45 75 8 0 15 5 15 10 0 19 -18 10 -45 -21z"></path>    <path d="M3185 616 c-49 -28 -91 -59 -93 -68 -2 -9 11 -26 27 -37 l30 -22 126 72 c69 39 125 73 125 75 0 2 -13 10 -30 19 -50 26 -88 18 -185 -39z"></path>    <path d="M2915 459 c-124 -70 -127 -74 -90 -105 17 -13 34 -24 40 -24 13 0 245 134 245 141 0 10 -65 39 -87 39 -10 0 -58 -23 -108 -51z"></path>  </g> <g id="layer114" fill="#dcdcdc" stroke="none">  <path d="M3194 2790 c-56 -22 -1442 -825 -1461 -846 -12 -13 -20 -31 -17 -39 4 -10 709 -470 871 -568 10 -6 13 0 13 21 0 27 -12 37 -157 127 -196 121 -223 141 -223 164 0 12 54 48 179 120 98 57 184 107 191 111 9 5 10 19 6 43 -6 30 -12 36 -46 45 -56 14 -268 139 -275 162 -3 11 -2 27 4 37 5 10 87 63 183 118 167 96 175 100 233 100 57 0 67 -4 183 -73 119 -71 123 -75 120 -105 -2 -25 -12 -36 -48 -57 -25 -15 -61 -43 -82 -63 -20 -21 -50 -40 -68 -43 -25 -5 -30 -11 -28 -28 2 -11 8 -20 14 -19 6 1 195 108 420 237 244 141 419 236 435 236 15 0 82 -36 165 -88 76 -48 192 -122 257 -162 116 -74 139 -98 118 -124 -25 -29 22 -26 76 5 l55 32 -33 21 c-19 11 -241 153 -494 314 -253 162 -476 303 -495 313 -37 20 -63 23 -96 9z"></path>  <path d="M3958 1952 c-79 -46 -97 -61 -98 -80 l0 -24 43 25 c23 13 72 42 110 63 43 25 67 45 67 56 0 27 -16 22 -122 -40z"></path>  <path d="M3963 1862 l-103 -57 0 -187 c0 -104 3 -188 8 -188 4 0 52 26 107 58 l100 58 3 187 c1 103 -1 187 -5 187 -5 0 -54 -26 -110 -58z m8 -58 c-51 -30 -95 -53 -98 -51 -5 6 168 106 182 107 6 0 -32 -25 -84 -56z m74 0 c-28 -21 -161 -94 -171 -94 -5 0 34 25 86 55 95 55 122 67 85 39z m-74 -89 c-52 -31 -96 -54 -98 -51 -5 5 168 106 182 106 6 0 -32 -25 -84 -55z m89 10 c0 -2 -13 -11 -30 -20 -38 -19 -40 -11 -2 9 31 17 32 18 32 11z m-70 -39 c0 -6 -106 -66 -116 -66 -5 0 18 16 51 35 64 37 65 37 65 31z m69 -9 c-31 -23 -197 -113 -186 -101 13 14 181 111 186 108 2 -2 2 -5 0 -7z m-39 -65 c-74 -46 -146 -86 -137 -76 12 13 160 102 172 103 6 0 -10 -12 -35 -27z m30 -26 c-18 -16 -139 -83 -127 -70 8 8 128 82 137 83 2 1 -2 -5 -10 -13z m-145 -86 c-3 -5 -12 -10 -18 -10 -7 0 -6 4 3 10 19 12 23 12 15 0z"></path>  <path d="M3675 1789 c-70 -41 -101 -65 -103 -80 -3 -20 1 -19 65 17 37 21 85 47 105 59 26 14 38 27 38 43 0 12 -1 22 -2 21 -2 0 -48 -27 -103 -60z"></path>  <path d="M2622 1774 c-19 -13 -22 -24 -22 -91 l0 -76 -23 21 c-19 18 -35 22 -93 22 -39 0 -73 -2 -76 -5 -2 -3 -3 -18 0 -34 4 -29 4 -29 59 -24 l55 6 63 -67 c60 -62 65 -65 89 -55 33 15 37 27 43 137 4 61 10 91 17 89 19 -6 18 -85 -3 -158 -17 -61 -18 -73 -6 -85 22 -23 32 -17 70 41 40 60 38 59 108 55 46 -2 47 -1 47 29 0 29 -3 31 -37 32 -21 1 -57 1 -80 -1 l-43 -2 0 55 c0 73 -5 84 -51 107 -46 24 -87 25 -117 4z"></path>  <path d="M3668 1693 l-98 -57 0 -188 0 -187 108 62 107 62 0 48 c-2 217 -6 317 -12 317 -5 0 -52 -26 -105 -57z m102 3 c0 -6 -152 -94 -175 -101 -11 -4 21 18 70 48 85 52 105 62 105 53z m-1 -50 c-6 -5 -141 -82 -169 -96 -14 -7 -20 -8 -15 -2 16 16 179 111 184 106 2 -2 2 -6 0 -8z m1 -40 c0 -7 -181 -109 -185 -104 -5 4 164 105 178 107 4 1 7 -1 7 -3z m-4 -45 c-8 -12 -167 -104 -171 -99 -3 3 162 106 173 107 2 1 1 -3 -2 -8z m4 -45 c0 -6 -181 -108 -185 -104 -5 4 165 107 178 108 4 0 7 -2 7 -4z m-4 -45 c-8 -12 -168 -102 -173 -97 -3 3 163 103 175 105 2 1 1 -3 -2 -8z m3 -45 c-13 -13 -181 -107 -185 -104 -4 5 167 107 180 108 5 0 7 -2 5 -4z"></path>  <path d="M3330 1614 c-19 -14 -41 -29 -49 -33 -7 -5 -12 -13 -10 -20 5 -13 88 39 101 63 13 22 -1 19 -42 -10z"></path>  <path d="M3308 1537 c-41 -27 -48 -37 -48 -65 l0 -33 28 19 c38 26 52 34 52 29 0 -3 -20 -18 -45 -34 -42 -26 -45 -30 -43 -70 l1 -42 27 15 c44 27 75 52 69 58 -3 3 -22 -6 -43 -20 -21 -14 -40 -24 -42 -21 -6 5 72 57 86 57 6 0 11 17 10 38 0 20 2 52 6 70 8 39 2 39 -58 -1z m37 -20 c-40 -27 -80 -51 -73 -43 13 15 73 55 83 56 5 0 1 -6 -10 -13z m-10 -70 c-40 -27 -80 -51 -73 -43 13 15 73 55 83 56 5 0 1 -6 -10 -13z"></path>  <path d="M3148 1487 c-55 -31 -68 -43 -68 -63 l0 -24 48 27 c84 48 94 57 90 79 -3 19 -7 18 -70 -19z"></path>  <path d="M3963 1438 c-77 -44 -103 -65 -103 -80 0 -25 5 -23 125 47 68 40 95 62 95 76 0 10 -3 19 -7 18 -5 0 -54 -28 -110 -61z"></path>  <path d="M3143 1394 l-63 -35 0 -190 c0 -104 2 -189 6 -189 20 0 86 49 90 68 9 33 1 35 -40 11 -20 -11 -36 -19 -36 -16 0 3 18 16 40 28 25 14 40 30 40 42 0 18 -2 18 -36 -3 -19 -12 -37 -20 -39 -18 -2 2 16 15 40 28 40 22 44 27 43 62 0 21 -2 38 -4 38 -1 0 -19 -9 -38 -21 -20 -12 -36 -19 -36 -16 0 3 18 16 40 28 36 20 57 46 46 56 -2 3 -23 -7 -46 -22 -23 -15 -44 -24 -47 -22 -2 3 18 18 46 33 46 26 50 31 49 66 l0 38 -46 -25 c-25 -14 -47 -24 -49 -21 -2 2 21 18 52 35 44 25 55 36 55 56 0 14 -1 25 -2 25 -2 0 -31 -16 -65 -36z m47 -78 c0 -2 -20 -16 -45 -29 -25 -14 -45 -23 -45 -19 0 4 17 17 38 28 37 22 52 27 52 20z m-10 -141 c0 -2 -19 -14 -42 -26 -46 -23 -46 -17 -1 12 29 18 43 23 43 14z"></path>  <path d="M3963 1349 c-73 -43 -103 -66 -103 -80 0 -10 3 -19 6 -19 3 0 52 27 110 61 74 44 104 66 104 80 0 10 -3 19 -7 19 -5 -1 -54 -28 -110 -61z"></path>  <path d="M2898 1342 c-79 -46 -98 -61 -98 -80 l0 -24 33 20 c17 11 65 38 105 62 49 29 72 48 72 61 0 11 -3 19 -7 19 -5 -1 -52 -27 -105 -58z"></path>  <path d="M3293 1357 c-50 -31 -51 -34 -55 -83 l-3 -51 48 30 c51 31 70 63 65 108 l-3 28 -52 -32z m27 -11 c0 -3 -5 -8 -12 -12 -7 -4 -8 -3 -4 4 7 12 16 16 16 8z m-30 -21 c0 -2 -10 -9 -22 -15 -22 -11 -22 -10 -4 4 21 17 26 19 26 11z m50 1 c0 -5 -79 -56 -87 -56 -5 0 12 14 37 30 46 31 50 33 50 26z"></path>  <path d="M3673 1272 c-69 -38 -103 -63 -103 -74 0 -10 3 -18 8 -18 20 0 207 118 210 133 2 9 0 17 -5 17 -4 0 -54 -26 -110 -58z"></path>  <path d="M2898 1252 l-98 -57 0 -187 c0 -104 3 -188 6 -188 3 0 53 28 111 62 l106 61 -7 60 c-3 33 -6 116 -6 183 0 68 -3 124 -7 123 -5 0 -52 -26 -105 -57z m101 -5 c-31 -23 -197 -113 -186 -101 13 14 181 111 186 108 2 -2 2 -5 0 -7z m1 -41 c0 -6 -181 -108 -185 -104 -3 2 35 27 83 55 82 49 102 58 102 49z m-1 -49 c-4 -4 -167 -96 -184 -105 -6 -3 -5 0 1 7 14 16 178 109 183 105 2 -2 2 -5 0 -7z m0 -41 c-11 -11 -179 -106 -186 -106 -10 0 169 108 181 109 5 1 7 -1 5 -3z m1 -41 c0 -6 -55 -40 -135 -84 -87 -48 -52 -18 46 39 90 53 89 53 89 45z m-1 -49 c-11 -11 -182 -106 -185 -103 -4 4 167 105 180 106 5 1 7 -1 5 -3z m-17 -54 c-26 -20 -170 -99 -160 -87 8 9 170 104 178 104 3 0 -5 -7 -18 -17z"></path>  <path d="M2696 1281 c-3 -5 9 -18 27 -30 l32 -20 3 21 c5 30 -47 54 -62 29z"></path>  <path d="M3282 1215 c-46 -32 -66 -55 -44 -55 13 1 102 70 102 80 0 14 1 14 -58 -25z"></path>  <path d="M3962 1244 c-7 -3 -17 -15 -23 -27 -11 -21 -11 -21 11 1 27 28 52 25 62 -8 6 -23 7 -23 5 5 -2 30 -24 41 -55 29z"></path>  <path d="M3668 1182 c-67 -39 -98 -63 -98 -76 0 -23 8 -20 126 50 52 30 94 61 94 69 0 24 -19 17 -122 -43z"></path>  <path d="M3921 1162 c0 -20 4 -35 13 -38 20 -8 53 12 67 39 10 18 7 17 -14 -5 -30 -32 -54 -28 -60 10 -4 24 -4 23 -6 -6z"></path>  <path d="M3272 1145 c-60 -41 -71 -67 -14 -35 56 32 74 48 71 59 -2 6 -28 -5 -57 -24z"></path>  <path d="M4046 1105 c-114 -60 -176 -101 -176 -117 0 -9 14 -25 30 -33 30 -16 32 -15 150 52 66 37 120 70 120 74 0 7 -73 39 -88 39 -4 0 -20 -7 -36 -15z"></path>  <path d="M3703 1079 c9 -5 18 -20 18 -32 1 -18 2 -18 6 -4 5 20 -13 47 -31 47 -6 0 -3 -5 7 -11z"></path>  <path d="M3655 1060 c-10 -11 -16 -22 -14 -24 2 -2 12 7 22 20 22 29 17 32 -8 4z"></path>  <path d="M3633 995 c2 -39 35 -45 63 -13 l19 23 -22 -19 c-27 -22 -50 -16 -56 16 -4 16 -5 14 -4 -7z"></path>  <path d="M3118 957 c-27 -15 -38 -29 -38 -45 0 -13 3 -22 8 -20 69 33 82 43 82 65 0 28 -5 28 -52 0z"></path>  <path d="M3277 914 c-55 -32 -77 -50 -75 -62 3 -16 223 -192 240 -192 7 0 163 85 176 95 1 1 -16 14 -38 29 -26 17 -40 34 -40 49 -1 26 -131 127 -164 127 -12 0 -56 -21 -99 -46z"></path>  <path d="M3675 897 c-49 -29 -91 -60 -93 -69 -2 -11 9 -25 28 -37 l32 -19 72 42 c39 24 95 56 124 73 l54 30 -35 16 c-55 27 -85 21 -182 -36z"></path>  <path d="M2905 831 c-70 -41 -101 -65 -103 -80 -2 -11 -1 -21 1 -21 3 0 53 27 111 61 77 44 106 66 106 80 0 10 -3 19 -7 19 -5 -1 -53 -27 -108 -59z"></path>  <path d="M3118 867 c-26 -15 -38 -29 -38 -44 0 -28 0 -28 44 -2 25 15 36 28 36 45 0 13 -1 24 -2 24 -2 -1 -20 -11 -40 -23z"></path>  <path d="M3165 779 c-35 -43 -32 -93 6 -97 33 -4 70 38 68 77 l-2 26 -4 -25 c-5 -29 -40 -70 -59 -70 -35 0 -27 59 13 96 14 13 21 24 15 24 -5 0 -22 -14 -37 -31z"></path>  <path d="M2903 740 c-78 -46 -103 -66 -103 -81 0 -11 3 -19 8 -17 4 2 53 29 110 62 73 41 102 64 102 77 0 10 -3 19 -7 19 -5 0 -54 -27 -110 -60z"></path>  <path d="M3185 616 c-49 -28 -91 -59 -93 -68 -2 -9 11 -26 27 -37 l30 -22 108 62 c158 91 151 84 115 103 -52 27 -90 19 -187 -38z"></path>  <path d="M2881 614 c-27 -34 -26 -97 1 -102 18 -3 68 42 68 61 0 5 -9 -2 -21 -17 -29 -37 -59 -35 -59 4 0 32 30 70 55 70 9 0 20 -10 25 -22 10 -23 10 -23 7 2 -3 38 -48 40 -76 4z"></path>  <path d="M3000 503 c-8 -3 -55 -28 -103 -56 -96 -54 -106 -74 -56 -104 26 -16 29 -14 148 53 66 38 121 72 121 75 0 7 -68 39 -83 38 -7 0 -19 -3 -27 -6z"></path>  </g> </svg>