<?xml version="1.0" encoding="UTF-8"?>
<svg width="572px" height="572px" viewBox="0 0 572 572" version="1.1" xmlns="http://www.w3.org/2000/svg" xmlns:xlink="http://www.w3.org/1999/xlink">
    <!-- Generator: Sketch 52.6 (67491) - http://www.bohemiancoding.com/sketch -->
    <title>logo</title>
    <desc>Created with Sketch.</desc>
    <g id="logo" stroke="none" stroke-width="1" fill="none" fill-rule="evenodd">
        <g id="Path-group" transform="translate(57.000000, 92.000000)" stroke-linecap="round" stroke-linejoin="round" stroke-width="70">
            <path d="M204,5 C253.574531,5 306.661603,60.4211245 280.583531,135.579222 C372.427959,84.8742922 437.743753,168.600162 404.850705,230.760308 C496.173579,263.741019 460.279652,388.935883 376.858662,388.935883 C325.3553,388.935883 270.840271,388.935883 213.313574,388.935883" id="Path" stroke="#ACD5FF"></path>
            <path d="M124,389 C102.041273,389 69.9807762,372.55948 69.9807762,336.909295 C69.9807762,301.259109 69.9807762,301.259109 69.9807762,250.01966 C69.9807762,198.78021 4.21485633e-31,194.489744 0,194.489744 C0,194.489744 69.9807762,185.625059 69.9807762,131.189127 C69.9807762,76.7531946 69.9807762,78.3087023 69.9807762,50.7710878 C69.9807762,23.2334734 83.2976582,0 113.511455,0" id="Path-2" stroke="#45BF58"></path>
        </g>
        <g id="Group-3" transform="translate(21.000000, 57.000000)" fill-rule="nonzero">
            <path d="M121.551721,231.869049 C134.073363,246.389133 140.980776,264.514085 140.980776,285.01966 L140.980776,371.909295 C140.980776,377.428479 142.767505,380.925668 146.555629,383.941532 C150.477637,387.063987 156.099872,389 160,389 C179.329966,389 195,404.670034 195,424 C195,443.329966 179.329966,459 160,459 C140.372528,459 119.35824,451.763745 102.956102,438.705401 C82.9288356,422.760959 70.9807762,399.37486 70.9807762,371.909295 L70.9807762,285.01966 C70.9807762,278.687164 67.445439,274.58759 57.2349118,270.223551 C52.2020122,268.072461 46.4394271,266.453363 40.6227517,265.386926 C38.5652385,265.009698 36.6835582,264.735363 35.0560962,264.550469 C34.5445388,264.492351 34.121629,264.450407 33.7968296,264.422566 C33.7118702,264.415284 33.7139295,264.415295 33.8091191,264.421136 C-8.55312715,261.803572 -10.5448855,200.106042 31.6015883,194.767216 C31.4482596,194.786638 31.419467,194.790647 31.5059667,194.777447 C31.819385,194.729618 32.2312233,194.660879 32.7320947,194.569603 C34.3389426,194.276779 36.2020683,193.873547 38.2442906,193.350089 C44.0633935,191.858547 49.8459308,189.776637 54.9506852,187.144584 C66.2075764,181.340441 70.9807762,175.166413 70.9807762,166.189127 L70.9807762,85.7710878 C70.9807762,64.3115402 76.6511699,44.3705881 88.6597847,28.7376875 C102.900425,10.1991206 124.395234,0 149.511455,0 C168.841421,0 184.511455,15.6700338 184.511455,35 C184.511455,54.3299662 168.841421,70 149.511455,70 C145.772438,70 144.922528,70.403276 144.172099,71.3801895 C142.413533,73.6695036 140.980776,78.7080474 140.980776,85.7710878 L140.980776,166.189127 C140.980776,186.802651 134.520438,205.209559 122.736133,220.452296 C120.952316,222.759625 119.070001,224.968362 117.095001,227.08239 C118.635471,228.616225 120.121904,230.211035 121.551721,231.869049 Z" id="Path-2-Copy-2" fill="#45BF58"></path>
            <path d="M526.526678,364.913424 C514.46317,418.421911 469.264131,458.935883 412.858662,458.935883 L249.313574,458.935883 C229.983608,458.935883 214.313574,443.26585 214.313574,423.935883 C214.313574,404.605917 229.983608,388.935883 249.313574,388.935883 L412.858662,388.935883 C434.784789,388.935883 453.043659,372.569621 458.240587,349.5183 C460.651225,338.825758 459.617566,328.430815 455.419442,320.020499 C450.845819,310.857928 442.381539,303.525666 428.96219,298.679348 C408.952629,291.453014 399.964538,268.194187 409.914987,249.390171 C418.370717,233.410826 414.732791,213.81444 401.472043,201.300446 C394.795728,195.000096 386.20667,191.087736 376.192635,190.174083 C363.873333,189.050104 349.491815,192.390938 333.499458,201.219905 C305.411268,216.726666 273.000043,189.417631 283.517433,159.106073 C292.025708,134.584865 289.207584,113.269526 277.950018,97.1215997 C268.2962,83.2741016 253.305756,75 240,75 C220.670034,75 205,59.3299662 205,40 C205,20.6700338 220.670034,5 240,5 C276.832137,5 312.961508,24.9419102 335.372965,57.0890493 C348.449523,75.846148 356.182451,97.5550245 358.021819,120.746279 C392.722886,116.969571 425.05475,127.307176 449.5153,150.390277 C476.554245,175.906573 488.844907,212.830919 483.08773,248.481514 C520.905218,275.093612 536.772658,319.4667 526.526678,364.913424 Z" id="Path-Copy-2" fill="#ACD5FF"></path>
        </g>
    </g>
</svg>